<?xml version="1.0" encoding="UTF-8" standalone="no"?>
<!-- Created with Inkscape (http://www.inkscape.org/) -->

<svg
   width="136.38388mm"
   height="27.726217mm"
   viewBox="0 0 136.38388 27.726217"
   version="1.1"
   id="svg3363"
   inkscape:version="1.2.2 (b0a8486, 2022-12-01)"
   sodipodi:docname="decal.svg"
   xmlns:inkscape="http://www.inkscape.org/namespaces/inkscape"
   xmlns:sodipodi="http://sodipodi.sourceforge.net/DTD/sodipodi-0.dtd"
   xmlns="http://www.w3.org/2000/svg"
   xmlns:svg="http://www.w3.org/2000/svg">
  <sodipodi:namedview
     id="namedview3365"
     pagecolor="#ffffff"
     bordercolor="#000000"
     borderopacity="0.25"
     inkscape:showpageshadow="2"
     inkscape:pageopacity="0.0"
     inkscape:pagecheckerboard="0"
     inkscape:deskcolor="#d1d1d1"
     inkscape:document-units="mm"
     showgrid="false"
     inkscape:zoom="0.37590138"
     inkscape:cx="344.50526"
     inkscape:cy="623.83384"
     inkscape:window-width="1440"
     inkscape:window-height="847"
     inkscape:window-x="0"
     inkscape:window-y="25"
     inkscape:window-maximized="1"
     inkscape:current-layer="layer1" />
  <defs
     id="defs3360">
    <clipPath
       clipPathUnits="userSpaceOnUse"
       id="clipPath178">
      <path
         d="m 108.307,346.493 c -0.488,0 -0.884,-0.396 -0.884,-0.886 v 0 c 0,-0.489 0.396,-0.885 0.884,-0.885 v 0 h 383.386 c 0.49,0 0.885,0.396 0.885,0.885 v 0 c 0,0.49 -0.395,0.886 -0.885,0.886 v 0 z"
         id="path176" />
    </clipPath>
    <linearGradient
       x1="0"
       y1="0"
       x2="1"
       y2="0"
       gradientUnits="userSpaceOnUse"
       gradientTransform="matrix(112.93964,-124.52319,-124.52319,-112.93964,228.04472,424.94342)"
       spreadMethod="pad"
       id="linearGradient194">
      <stop
         style="stop-opacity:1;stop-color:#ddae59"
         offset="0"
         id="stop184" />
      <stop
         style="stop-opacity:1;stop-color:#ffd659"
         offset="0.237113"
         id="stop186" />
      <stop
         style="stop-opacity:1;stop-color:#ddae59"
         offset="0.505155"
         id="stop188" />
      <stop
         style="stop-opacity:1;stop-color:#ffd659"
         offset="0.768041"
         id="stop190" />
      <stop
         style="stop-opacity:1;stop-color:#ddae59"
         offset="1"
         id="stop192" />
    </linearGradient>
    <clipPath
       clipPathUnits="userSpaceOnUse"
       id="clipPath204">
      <path
         d="m 299.441,422.396 c -4.414,-3.607 -7.759,-8.568 -9.416,-13.964 v 0 c -0.125,-0.409 0.058,-0.848 0.436,-1.046 v 0 c 1.472,-0.763 2.508,-1.708 3.081,-2.807 v 0 c 0.634,-1.218 0.617,-2.675 -0.046,-3.626 v 0 c -0.628,-0.905 -2.132,-1.294 -2.967,-0.726 v 0 c -0.401,0.277 -0.642,0.833 -0.612,1.42 v 0 c 0.013,0.232 0.093,0.801 0.57,1.061 v 0 c 0.263,0.141 0.438,0.411 0.46,0.71 v 0 c 0.022,0.3 -0.11,0.593 -0.351,0.772 v 0 c -3.663,2.753 -9.129,3.359 -13.314,1.472 v 0 c -0.314,-0.145 -0.517,-0.455 -0.52,-0.801 v 0 c -0.056,-6.659 6.15,-11.393 9.856,-13.619 v 0 c 1.05,-0.631 2.13,-1.234 3.211,-1.837 v 0 c 3.465,-1.927 7.047,-3.924 9.487,-6.904 v 0 c 0.167,-0.207 0.419,-0.327 0.684,-0.327 v 0 c 0.265,0 0.516,0.12 0.685,0.327 v 0 c 2.44,2.982 6.024,4.977 9.49,6.907 v 0 c 1.081,0.603 2.157,1.203 3.206,1.834 v 0 c 3.705,2.226 9.915,6.96 9.859,13.619 v 0 c -0.003,0.346 -0.207,0.656 -0.522,0.801 v 0 c -4.182,1.887 -9.648,1.281 -13.315,-1.472 v 0 c -0.241,-0.179 -0.374,-0.472 -0.351,-0.772 v 0 c 0.021,-0.299 0.194,-0.569 0.461,-0.713 v 0 c 0.478,-0.257 0.559,-0.826 0.571,-1.058 v 0 c 0.029,-0.587 -0.21,-1.143 -0.612,-1.42 v 0 c -0.831,-0.565 -2.339,-0.181 -2.97,0.726 v 0 c -0.66,0.951 -0.678,2.408 -0.047,3.623 v 0 c 0.578,1.102 1.614,2.047 3.083,2.81 v 0 c 0.38,0.198 0.562,0.637 0.436,1.046 v 0 c -1.657,5.396 -5.001,10.357 -9.414,13.964 v 0 c -0.163,0.132 -0.362,0.198 -0.56,0.198 v 0 c -0.199,0 -0.397,-0.066 -0.559,-0.198 m -4.491,-22.454 c 1.042,1.504 1.105,3.641 0.158,5.453 v 0 c -0.648,1.247 -1.715,2.32 -3.174,3.193 v 0 c 1.543,4.578 4.377,8.782 8.066,11.968 v 0 c 3.686,-3.186 6.521,-7.39 8.065,-11.968 v 0 c -1.456,-0.873 -2.524,-1.943 -3.177,-3.193 v 0 c -0.945,-1.812 -0.879,-3.953 0.163,-5.453 v 0 c 1.16,-1.668 3.806,-2.28 5.419,-1.171 v 0 c 0.915,0.625 1.442,1.764 1.379,2.966 v 0 c -0.031,0.606 -0.213,1.165 -0.518,1.624 v 0 c 2.935,1.78 6.916,2.147 10.126,0.914 v 0 c -0.315,-5.491 -5.718,-9.555 -8.986,-11.52 v 0 c -1.031,-0.619 -2.094,-1.208 -3.155,-1.802 v 0 c -3.313,-1.842 -6.726,-3.742 -9.316,-6.546 v 0 c -2.591,2.801 -6.001,4.704 -9.311,6.546 v 0 c -1.064,0.59 -2.127,1.183 -3.16,1.802 v 0 c -3.268,1.965 -8.671,6.029 -8.985,11.52 v 0 c 3.212,1.24 7.196,0.869 10.125,-0.914 v 0 c -0.303,-0.459 -0.485,-1.018 -0.516,-1.624 v 0 c -0.063,-1.202 0.463,-2.341 1.375,-2.966 v 0 c 0.558,-0.382 1.239,-0.559 1.939,-0.559 v 0 c 1.326,0 2.722,0.637 3.483,1.73"
         id="path202" />
    </clipPath>
    <linearGradient
       x1="0"
       y1="0"
       x2="1"
       y2="0"
       gradientUnits="userSpaceOnUse"
       gradientTransform="matrix(112.93948,-124.52301,-124.52301,-112.93948,256.46997,450.72449)"
       spreadMethod="pad"
       id="linearGradient220">
      <stop
         style="stop-opacity:1;stop-color:#ddae59"
         offset="0"
         id="stop210" />
      <stop
         style="stop-opacity:1;stop-color:#ffd659"
         offset="0.237113"
         id="stop212" />
      <stop
         style="stop-opacity:1;stop-color:#ddae59"
         offset="0.505155"
         id="stop214" />
      <stop
         style="stop-opacity:1;stop-color:#ffd659"
         offset="0.768041"
         id="stop216" />
      <stop
         style="stop-opacity:1;stop-color:#ddae59"
         offset="1"
         id="stop218" />
    </linearGradient>
    <clipPath
       clipPathUnits="userSpaceOnUse"
       id="clipPath230">
      <path
         d="m 347.779,365.563 c -1.046,-1.51 -1.419,-3.476 -1.023,-5.394 v 0 c 0.369,-1.796 1.352,-3.271 2.769,-4.16 v 0 c 1.359,-0.851 4.044,-1.19 5.312,0.188 v 0 l 0.238,0.258 c 0.848,0.904 2.013,2.141 1.187,3.936 v 0 c -0.2,0.447 -0.725,0.635 -1.171,0.437 v 0 c -0.446,-0.203 -0.64,-0.728 -0.436,-1.171 v 0 c 0.301,-0.659 0.019,-1.048 -0.87,-1.993 v 0 l -0.248,-0.268 c -0.531,-0.583 -2.21,-0.429 -3.077,0.114 v 0 c -1.002,0.628 -1.702,1.698 -1.972,3.014 v 0 c -0.295,1.428 -0.015,2.936 0.748,4.035 v 0 c 1.488,2.156 4.734,3.079 7.378,2.075 v 0 c 2.534,-0.949 4.515,-3.457 5.048,-6.39 v 0 c 0.798,-4.361 -1.66,-9.164 -5.846,-11.416 v 0 c -3.937,-2.128 -9.067,-2.002 -13.387,0.318 v 0 c -3.943,2.119 -7.102,5.906 -8.892,10.662 v 0 c -0.097,0.254 -0.304,0.449 -0.561,0.534 v 0 c -0.268,0.078 -0.54,0.041 -0.766,-0.113 v 0 l -20.295,-13.827 c -0.402,-0.276 -0.506,-0.826 -0.232,-1.231 v 0 c 0.172,-0.251 0.449,-0.386 0.731,-0.386 v 0 c 0.173,0 0.345,0.05 0.499,0.154 v 0 l 19.384,13.208 c 2,-4.672 5.269,-8.395 9.297,-10.559 v 0 c 4.841,-2.599 10.608,-2.719 15.061,-0.317 v 0 c 4.841,2.607 7.679,8.195 6.747,13.291 v 0 c -0.641,3.531 -3.062,6.564 -6.167,7.729 v 0 c -0.935,0.352 -1.919,0.52 -2.895,0.52 v 0 c -2.592,0 -5.129,-1.184 -6.561,-3.248"
         id="path228" />
    </clipPath>
    <linearGradient
       x1="0"
       y1="0"
       x2="1"
       y2="0"
       gradientUnits="userSpaceOnUse"
       gradientTransform="matrix(112.9396,-124.52313,-124.52313,-112.9396,252.84949,447.4407)"
       spreadMethod="pad"
       id="linearGradient246">
      <stop
         style="stop-opacity:1;stop-color:#ddae59"
         offset="0"
         id="stop236" />
      <stop
         style="stop-opacity:1;stop-color:#ffd659"
         offset="0.237113"
         id="stop238" />
      <stop
         style="stop-opacity:1;stop-color:#ddae59"
         offset="0.505155"
         id="stop240" />
      <stop
         style="stop-opacity:1;stop-color:#ffd659"
         offset="0.768041"
         id="stop242" />
      <stop
         style="stop-opacity:1;stop-color:#ddae59"
         offset="1"
         id="stop244" />
    </linearGradient>
    <clipPath
       clipPathUnits="userSpaceOnUse"
       id="clipPath256">
      <path
         d="m 242.766,368.291 c -3.103,-1.161 -5.524,-4.194 -6.168,-7.727 v 0 c -0.93,-5.098 1.905,-10.686 6.744,-13.293 v 0 c 4.455,-2.405 10.228,-2.282 15.064,0.317 v 0 c 4.029,2.167 7.298,5.891 9.295,10.559 v 0 l 19.385,-13.208 c 0.153,-0.104 0.325,-0.154 0.496,-0.154 v 0 c 0.283,0 0.561,0.135 0.732,0.386 v 0 c 0.276,0.405 0.171,0.955 -0.232,1.231 v 0 l -20.294,13.827 c -0.225,0.147 -0.503,0.188 -0.765,0.109 v 0 c -0.259,-0.081 -0.465,-0.276 -0.561,-0.53 v 0 c -1.787,-4.753 -4.946,-8.54 -8.894,-10.662 v 0 c -4.317,-2.324 -9.449,-2.443 -13.387,-0.318 v 0 c -4.184,2.252 -6.64,7.055 -5.843,11.419 v 0 c 0.535,2.933 2.516,5.438 5.048,6.387 v 0 c 2.647,0.998 5.884,0.078 7.38,-2.075 v 0 c 0.76,-1.099 1.04,-2.607 0.745,-4.035 v 0 c -0.271,-1.316 -0.973,-2.39 -1.974,-3.014 v 0 c -0.844,-0.534 -2.551,-0.684 -3.072,-0.114 v 0 l -0.25,0.268 c -0.889,0.945 -1.173,1.334 -0.87,1.99 v 0 c 0.205,0.446 0.009,0.971 -0.434,1.174 v 0 c -0.439,0.195 -0.969,0.01 -1.173,-0.433 v 0 c -0.827,-1.799 0.338,-3.039 1.188,-3.944 v 0 l 0.238,-0.251 c 1.272,-1.394 3.952,-1.045 5.311,-0.191 v 0 c 1.415,0.889 2.399,2.364 2.768,4.16 v 0 c 0.396,1.918 0.022,3.884 -1.023,5.394 v 0 c -1.429,2.063 -3.965,3.246 -6.559,3.246 v 0 c -0.976,0 -1.959,-0.167 -2.895,-0.518"
         id="path254" />
    </clipPath>
    <linearGradient
       x1="0"
       y1="0"
       x2="1"
       y2="0"
       gradientUnits="userSpaceOnUse"
       gradientTransform="matrix(112.93958,-124.52312,-124.52312,-112.93958,209.57738,408.19382)"
       spreadMethod="pad"
       id="linearGradient272">
      <stop
         style="stop-opacity:1;stop-color:#ddae59"
         offset="0"
         id="stop262" />
      <stop
         style="stop-opacity:1;stop-color:#ffd659"
         offset="0.237113"
         id="stop264" />
      <stop
         style="stop-opacity:1;stop-color:#ddae59"
         offset="0.505155"
         id="stop266" />
      <stop
         style="stop-opacity:1;stop-color:#ffd659"
         offset="0.768041"
         id="stop268" />
      <stop
         style="stop-opacity:1;stop-color:#ddae59"
         offset="1"
         id="stop270" />
    </linearGradient>
    <clipPath
       clipPathUnits="userSpaceOnUse"
       id="clipPath282">
      <path
         d="m 361.462,353.726 c -0.49,0 -0.886,-0.395 -0.886,-0.885 v 0 c 0,-0.49 0.396,-0.885 0.886,-0.885 v 0 h 92.895 c 0.489,0 0.885,0.395 0.885,0.885 v 0 c 0,0.49 -0.396,0.885 -0.885,0.885 v 0 z"
         id="path280" />
    </clipPath>
    <linearGradient
       x1="0"
       y1="0"
       x2="1"
       y2="0"
       gradientUnits="userSpaceOnUse"
       gradientTransform="matrix(112.9397,-124.52325,-124.52325,-112.9397,290.84988,481.90625)"
       spreadMethod="pad"
       id="linearGradient298">
      <stop
         style="stop-opacity:1;stop-color:#ddae59"
         offset="0"
         id="stop288" />
      <stop
         style="stop-opacity:1;stop-color:#ffd659"
         offset="0.237113"
         id="stop290" />
      <stop
         style="stop-opacity:1;stop-color:#ddae59"
         offset="0.505155"
         id="stop292" />
      <stop
         style="stop-opacity:1;stop-color:#ffd659"
         offset="0.768041"
         id="stop294" />
      <stop
         style="stop-opacity:1;stop-color:#ddae59"
         offset="1"
         id="stop296" />
    </linearGradient>
    <clipPath
       clipPathUnits="userSpaceOnUse"
       id="clipPath308">
      <path
         d="m 145.643,353.726 c -0.487,0 -0.883,-0.395 -0.883,-0.885 v 0 c 0,-0.49 0.396,-0.885 0.883,-0.885 v 0 h 92.889 c 0.488,0 0.884,0.395 0.884,0.885 v 0 c 0,0.49 -0.396,0.885 -0.884,0.885 v 0 z"
         id="path306" />
    </clipPath>
    <linearGradient
       x1="0"
       y1="0"
       x2="1"
       y2="0"
       gradientUnits="userSpaceOnUse"
       gradientTransform="matrix(112.93948,-124.52301,-124.52301,-112.93948,172.43652,374.508)"
       spreadMethod="pad"
       id="linearGradient324">
      <stop
         style="stop-opacity:1;stop-color:#ddae59"
         offset="0"
         id="stop314" />
      <stop
         style="stop-opacity:1;stop-color:#ffd659"
         offset="0.237113"
         id="stop316" />
      <stop
         style="stop-opacity:1;stop-color:#ddae59"
         offset="0.505155"
         id="stop318" />
      <stop
         style="stop-opacity:1;stop-color:#ffd659"
         offset="0.768041"
         id="stop320" />
      <stop
         style="stop-opacity:1;stop-color:#ddae59"
         offset="1"
         id="stop322" />
    </linearGradient>
    <clipPath
       clipPathUnits="userSpaceOnUse"
       id="clipPath334">
      <path
         d="m 376.666,366.499 c -3.243,-1.887 -11.352,-6.996 -16.586,-13.639 v 0 c -0.301,-0.383 -0.236,-0.938 0.148,-1.24 v 0 c 0.16,-0.129 0.354,-0.192 0.546,-0.192 v 0 c 0.26,0 0.521,0.116 0.694,0.34 v 0 c 3.5,4.442 9.516,9.378 16.09,13.205 v 0 c 6,3.497 12.694,4.678 18.386,3.237 v 0 c 2.681,-0.681 4.888,-1.896 6.377,-3.514 v 0 c 1.707,-1.849 2.48,-4.332 2.021,-6.477 v 0 c -0.489,-2.276 -2.527,-4.101 -4.643,-4.15 v 0 c -0.029,-0.004 -0.057,-0.004 -0.082,-0.004 v 0 c -1.057,0 -2.147,0.509 -2.929,1.369 v 0 c -0.71,0.776 -1.052,1.736 -0.945,2.637 v 0 c 0.113,0.964 0.87,1.881 1.925,2.333 v 0 c 0.941,0.405 1.902,0.352 2.574,-0.15 v 0 c 0.383,-0.285 0.945,-0.207 1.237,0.182 v 0 c 0.292,0.392 0.211,0.945 -0.182,1.237 v 0 c -1.18,0.882 -2.8,1.011 -4.33,0.357 v 0 c -1.648,-0.709 -2.79,-2.147 -2.982,-3.751 v 0 c -0.167,-1.41 0.342,-2.879 1.394,-4.037 v 0 c 1.142,-1.253 2.778,-1.95 4.364,-1.944 v 0 c 2.941,0.072 5.664,2.459 6.326,5.551 v 0 c 0.581,2.696 -0.358,5.78 -2.449,8.047 v 0 c -1.72,1.867 -4.226,3.262 -7.243,4.027 v 0 c -1.729,0.442 -3.542,0.659 -5.399,0.659 v 0 c -4.719,0 -9.718,-1.402 -14.312,-4.083"
         id="path332" />
    </clipPath>
    <linearGradient
       x1="0"
       y1="0"
       x2="1"
       y2="0"
       gradientUnits="userSpaceOnUse"
       gradientTransform="matrix(112.93949,-124.52302,-124.52302,-112.93949,279.53265,471.64157)"
       spreadMethod="pad"
       id="linearGradient350">
      <stop
         style="stop-opacity:1;stop-color:#ddae59"
         offset="0"
         id="stop340" />
      <stop
         style="stop-opacity:1;stop-color:#ffd659"
         offset="0.237113"
         id="stop342" />
      <stop
         style="stop-opacity:1;stop-color:#ddae59"
         offset="0.505155"
         id="stop344" />
      <stop
         style="stop-opacity:1;stop-color:#ffd659"
         offset="0.768041"
         id="stop346" />
      <stop
         style="stop-opacity:1;stop-color:#ddae59"
         offset="1"
         id="stop348" />
    </linearGradient>
    <clipPath
       clipPathUnits="userSpaceOnUse"
       id="clipPath360">
      <path
         d="m 203.624,369.923 c -3.017,-0.765 -5.522,-2.156 -7.244,-4.027 v 0 c -2.092,-2.267 -3.028,-5.351 -2.449,-8.047 v 0 c 0.664,-3.092 3.384,-5.479 6.326,-5.551 v 0 c 1.591,-0.019 3.221,0.691 4.362,1.944 v 0 c 1.054,1.158 1.563,2.627 1.395,4.037 v 0 c -0.19,1.604 -1.332,3.039 -2.979,3.749 v 0 c -1.53,0.662 -3.147,0.524 -4.334,-0.355 v 0 c -0.392,-0.292 -0.473,-0.845 -0.182,-1.237 v 0 c 0.293,-0.389 0.846,-0.474 1.238,-0.182 v 0 c 0.675,0.499 1.639,0.555 2.578,0.15 v 0 c 1.054,-0.454 1.809,-1.369 1.924,-2.333 v 0 c 0.107,-0.901 -0.239,-1.861 -0.945,-2.637 v 0 c -0.783,-0.86 -1.873,-1.369 -2.931,-1.369 v 0 c -0.029,0 -0.056,0 -0.084,0.004 v 0 c -2.113,0.049 -4.15,1.874 -4.638,4.15 v 0 c -0.462,2.145 0.312,4.625 2.019,6.477 v 0 c 1.489,1.618 3.695,2.833 6.38,3.514 v 0 c 5.671,1.443 12.377,0.263 18.383,-3.237 v 0 c 6.578,-3.831 12.592,-8.767 16.089,-13.205 v 0 c 0.175,-0.224 0.433,-0.34 0.694,-0.34 v 0 c 0.192,0 0.385,0.063 0.547,0.192 v 0 c 0.384,0.302 0.45,0.857 0.147,1.24 v 0 c -5.227,6.64 -13.341,11.752 -16.587,13.639 v 0 c -4.598,2.681 -9.602,4.073 -14.324,4.073 v 0 c -1.852,0 -3.661,-0.214 -5.385,-0.649"
         id="path358" />
    </clipPath>
    <linearGradient
       x1="0"
       y1="0"
       x2="1"
       y2="0"
       gradientUnits="userSpaceOnUse"
       gradientTransform="matrix(112.93961,-124.52315,-124.52315,-112.93961,186.9903,387.70795)"
       spreadMethod="pad"
       id="linearGradient376">
      <stop
         style="stop-opacity:1;stop-color:#ddae59"
         offset="0"
         id="stop366" />
      <stop
         style="stop-opacity:1;stop-color:#ffd659"
         offset="0.237113"
         id="stop368" />
      <stop
         style="stop-opacity:1;stop-color:#ddae59"
         offset="0.505155"
         id="stop370" />
      <stop
         style="stop-opacity:1;stop-color:#ffd659"
         offset="0.768041"
         id="stop372" />
      <stop
         style="stop-opacity:1;stop-color:#ddae59"
         offset="1"
         id="stop374" />
    </linearGradient>
    <clipPath
       clipPathUnits="userSpaceOnUse"
       id="clipPath386">
      <path
         d="m 413.726,362.479 c -0.251,-0.191 -0.379,-0.498 -0.338,-0.81 v 0 c 0.364,-2.953 -0.732,-6.087 -2.858,-8.172 v 0 c -0.348,-0.342 -0.354,-0.9 -0.012,-1.25 v 0 c 0.342,-0.348 0.901,-0.357 1.25,-0.012 v 0 c 2.166,2.123 3.425,5.165 3.453,8.201 v 0 c 9.357,-3.774 17.033,-6.54 23.441,-8.442 v 0 c 0.084,-0.026 0.169,-0.038 0.251,-0.038 v 0 c 0.382,0 0.734,0.248 0.848,0.634 v 0 c 0.137,0.467 -0.129,0.961 -0.597,1.099 v 0 c -6.644,1.975 -14.678,4.888 -24.567,8.907 v 0 c -0.106,0.044 -0.218,0.065 -0.33,0.065 v 0 c -0.191,0 -0.382,-0.062 -0.541,-0.182"
         id="path384" />
    </clipPath>
    <linearGradient
       x1="0"
       y1="0"
       x2="1"
       y2="0"
       gradientUnits="userSpaceOnUse"
       gradientTransform="matrix(112.93978,-124.52334,-124.52334,-112.93978,300.25031,490.43265)"
       spreadMethod="pad"
       id="linearGradient402">
      <stop
         style="stop-opacity:1;stop-color:#ddae59"
         offset="0"
         id="stop392" />
      <stop
         style="stop-opacity:1;stop-color:#ffd659"
         offset="0.237113"
         id="stop394" />
      <stop
         style="stop-opacity:1;stop-color:#ddae59"
         offset="0.505155"
         id="stop396" />
      <stop
         style="stop-opacity:1;stop-color:#ffd659"
         offset="0.768041"
         id="stop398" />
      <stop
         style="stop-opacity:1;stop-color:#ddae59"
         offset="1"
         id="stop400" />
    </linearGradient>
    <clipPath
       clipPathUnits="userSpaceOnUse"
       id="clipPath412">
      <path
         d="m 185.404,362.596 c -9.885,-4.019 -17.923,-6.932 -24.568,-8.907 v 0 c -0.469,-0.138 -0.735,-0.632 -0.596,-1.099 v 0 c 0.114,-0.386 0.466,-0.634 0.847,-0.634 v 0 c 0.083,0 0.168,0.012 0.252,0.038 v 0 c 6.409,1.905 14.087,4.668 23.438,8.442 v 0 c 0.032,-3.036 1.291,-6.078 3.455,-8.201 v 0 c 0.35,-0.345 0.909,-0.336 1.25,0.012 v 0 c 0.342,0.35 0.336,0.908 -0.012,1.25 v 0 c -2.126,2.085 -3.22,5.219 -2.856,8.172 v 0 c 0.038,0.312 -0.091,0.619 -0.339,0.81 v 0 c -0.157,0.12 -0.348,0.182 -0.54,0.182 v 0 c -0.112,0 -0.225,-0.021 -0.331,-0.065"
         id="path410" />
    </clipPath>
    <linearGradient
       x1="0"
       y1="0"
       x2="1"
       y2="0"
       gradientUnits="userSpaceOnUse"
       gradientTransform="matrix(112.93967,-124.52322,-124.52322,-112.93967,164.41301,367.23087)"
       spreadMethod="pad"
       id="linearGradient428">
      <stop
         style="stop-opacity:1;stop-color:#ddae59"
         offset="0"
         id="stop418" />
      <stop
         style="stop-opacity:1;stop-color:#ffd659"
         offset="0.237113"
         id="stop420" />
      <stop
         style="stop-opacity:1;stop-color:#ddae59"
         offset="0.505155"
         id="stop422" />
      <stop
         style="stop-opacity:1;stop-color:#ffd659"
         offset="0.768041"
         id="stop424" />
      <stop
         style="stop-opacity:1;stop-color:#ddae59"
         offset="1"
         id="stop426" />
    </linearGradient>
    <clipPath
       clipPathUnits="userSpaceOnUse"
       id="clipPath438">
      <path
         d="m 474.45,357.786 c -2.081,-1.372 -2.826,-4.301 -1.626,-6.393 v 0 c 0.804,-1.403 2.371,-2.179 3.755,-1.89 v 0 c 0.857,0.177 1.617,0.81 1.991,1.662 v 0 c 0.335,0.766 0.301,1.582 -0.098,2.242 v 0 c -0.254,0.417 -0.797,0.552 -1.215,0.297 v 0 c -0.417,-0.251 -0.55,-0.794 -0.298,-1.214 v 0 c 0.132,-0.217 0.05,-0.481 -0.009,-0.616 v 0 c -0.142,-0.323 -0.431,-0.578 -0.726,-0.637 v 0 c -0.713,-0.154 -1.514,0.415 -1.868,1.036 v 0 c -0.726,1.265 -0.216,3.19 1.067,4.037 v 0 c 1.291,0.851 3.21,0.685 4.45,-0.386 v 0 c 1.208,-1.036 1.776,-2.86 1.415,-4.533 v 0 c -0.348,-1.611 -1.503,-3.09 -3.089,-3.96 v 0 c -1.51,-0.828 -3.846,-0.938 -5.931,-0.938 v 0 c -0.49,0 -0.885,-0.396 -0.885,-0.886 v 0 c 0,-0.489 0.395,-0.885 0.885,-0.885 v 0 c 2.427,0 4.926,0.141 6.779,1.159 v 0 c 2.031,1.111 3.513,3.033 3.968,5.136 v 0 c 0.503,2.323 -0.277,4.778 -1.99,6.251 v 0 c -1.048,0.895 -2.382,1.354 -3.697,1.354 v 0 c -1.018,0 -2.025,-0.275 -2.878,-0.836"
         id="path436" />
    </clipPath>
    <linearGradient
       x1="0"
       y1="0"
       x2="1"
       y2="0"
       gradientUnits="userSpaceOnUse"
       gradientTransform="matrix(112.93979,-124.52335,-124.52335,-112.93979,327.55359,515.19568)"
       spreadMethod="pad"
       id="linearGradient454">
      <stop
         style="stop-opacity:1;stop-color:#ddae59"
         offset="0"
         id="stop444" />
      <stop
         style="stop-opacity:1;stop-color:#ffd659"
         offset="0.237113"
         id="stop446" />
      <stop
         style="stop-opacity:1;stop-color:#ddae59"
         offset="0.505155"
         id="stop448" />
      <stop
         style="stop-opacity:1;stop-color:#ffd659"
         offset="0.768041"
         id="stop450" />
      <stop
         style="stop-opacity:1;stop-color:#ddae59"
         offset="1"
         id="stop452" />
    </linearGradient>
    <clipPath
       clipPathUnits="userSpaceOnUse"
       id="clipPath464">
      <path
         d="m 118.976,357.268 c -1.713,-1.473 -2.495,-3.928 -1.99,-6.255 v 0 c 0.454,-2.099 1.936,-4.021 3.964,-5.132 v 0 c 1.86,-1.021 4.472,-1.159 6.782,-1.159 v 0 c 0.488,0 0.883,0.396 0.883,0.885 v 0 c 0,0.49 -0.395,0.886 -0.883,0.886 v 0 c -2.087,0 -4.421,0.11 -5.931,0.938 v 0 c -1.585,0.87 -2.739,2.349 -3.087,3.96 v 0 c -0.363,1.673 0.205,3.497 1.414,4.533 v 0 c 1.248,1.071 3.157,1.237 4.448,0.386 v 0 c 1.285,-0.847 1.791,-2.772 1.065,-4.037 v 0 c -0.354,-0.615 -1.129,-1.205 -1.865,-1.036 v 0 c -0.292,0.059 -0.582,0.314 -0.723,0.637 v 0 c -0.061,0.135 -0.142,0.399 -0.012,0.618 v 0 c 0.253,0.418 0.118,0.961 -0.3,1.212 v 0 c -0.422,0.261 -0.964,0.12 -1.213,-0.301 v 0 c -0.397,-0.656 -0.432,-1.475 -0.095,-2.242 v 0 c 0.373,-0.848 1.134,-1.481 1.987,-1.658 v 0 c 1.407,-0.291 2.951,0.487 3.754,1.89 v 0 c 1.203,2.092 0.458,5.021 -1.624,6.393 v 0 c -0.853,0.562 -1.859,0.837 -2.876,0.837 v 0 c -1.317,0 -2.653,-0.461 -3.698,-1.355"
         id="path462" />
    </clipPath>
    <linearGradient
       x1="0"
       y1="0"
       x2="1"
       y2="0"
       gradientUnits="userSpaceOnUse"
       gradientTransform="matrix(112.93985,-124.52341,-124.52341,-112.93985,134.05141,339.6936)"
       spreadMethod="pad"
       id="linearGradient480">
      <stop
         style="stop-opacity:1;stop-color:#ddae59"
         offset="0"
         id="stop470" />
      <stop
         style="stop-opacity:1;stop-color:#ffd659"
         offset="0.237113"
         id="stop472" />
      <stop
         style="stop-opacity:1;stop-color:#ddae59"
         offset="0.505155"
         id="stop474" />
      <stop
         style="stop-opacity:1;stop-color:#ffd659"
         offset="0.768041"
         id="stop476" />
      <stop
         style="stop-opacity:1;stop-color:#ddae59"
         offset="1"
         id="stop478" />
    </linearGradient>
    <clipPath
       clipPathUnits="userSpaceOnUse"
       id="clipPath490">
      <path
         d="m 453.314,352.841 c 0,-0.888 0.72,-1.607 1.607,-1.607 v 0 c 0.889,0 1.608,0.719 1.608,1.607 v 0 c 0,0.889 -0.719,1.608 -1.608,1.608 v 0 c -0.887,0 -1.607,-0.719 -1.607,-1.608"
         id="path488" />
    </clipPath>
    <linearGradient
       x1="0"
       y1="0"
       x2="1"
       y2="0"
       gradientUnits="userSpaceOnUse"
       gradientTransform="matrix(112.94047,-124.52409,-124.52409,-112.94047,316.6431,505.30197)"
       spreadMethod="pad"
       id="linearGradient506">
      <stop
         style="stop-opacity:1;stop-color:#ddae59"
         offset="0"
         id="stop496" />
      <stop
         style="stop-opacity:1;stop-color:#ffd659"
         offset="0.237113"
         id="stop498" />
      <stop
         style="stop-opacity:1;stop-color:#ddae59"
         offset="0.505155"
         id="stop500" />
      <stop
         style="stop-opacity:1;stop-color:#ffd659"
         offset="0.768041"
         id="stop502" />
      <stop
         style="stop-opacity:1;stop-color:#ddae59"
         offset="1"
         id="stop504" />
    </linearGradient>
    <clipPath
       clipPathUnits="userSpaceOnUse"
       id="clipPath516">
      <path
         d="m 143.471,352.841 c 0,-0.888 0.72,-1.607 1.608,-1.607 v 0 c 0.887,0 1.607,0.719 1.607,1.607 v 0 c 0,0.889 -0.72,1.608 -1.607,1.608 v 0 c -0.888,0 -1.608,-0.719 -1.608,-1.608"
         id="path514" />
    </clipPath>
    <linearGradient
       x1="0"
       y1="0"
       x2="1"
       y2="0"
       gradientUnits="userSpaceOnUse"
       gradientTransform="matrix(112.94048,-124.52411,-124.52411,-112.94048,146.6443,351.11511)"
       spreadMethod="pad"
       id="linearGradient532">
      <stop
         style="stop-opacity:1;stop-color:#ddae59"
         offset="0"
         id="stop522" />
      <stop
         style="stop-opacity:1;stop-color:#ffd659"
         offset="0.237113"
         id="stop524" />
      <stop
         style="stop-opacity:1;stop-color:#ddae59"
         offset="0.505155"
         id="stop526" />
      <stop
         style="stop-opacity:1;stop-color:#ffd659"
         offset="0.768041"
         id="stop528" />
      <stop
         style="stop-opacity:1;stop-color:#ddae59"
         offset="1"
         id="stop530" />
    </linearGradient>
    <clipPath
       clipPathUnits="userSpaceOnUse"
       id="clipPath542">
      <path
         d="m 120.677,352.948 c 0,-0.888 0.72,-1.608 1.609,-1.608 v 0 c 0.887,0 1.607,0.72 1.607,1.608 v 0 c 0,0.888 -0.72,1.607 -1.607,1.607 v 0 c -0.889,0 -1.609,-0.719 -1.609,-1.607"
         id="path540" />
    </clipPath>
    <linearGradient
       x1="0"
       y1="0"
       x2="1"
       y2="0"
       gradientUnits="userSpaceOnUse"
       gradientTransform="matrix(112.93811,-124.52149,-124.52149,-112.93811,134.19127,339.8208)"
       spreadMethod="pad"
       id="linearGradient558">
      <stop
         style="stop-opacity:1;stop-color:#ddae59"
         offset="0"
         id="stop548" />
      <stop
         style="stop-opacity:1;stop-color:#ffd659"
         offset="0.237113"
         id="stop550" />
      <stop
         style="stop-opacity:1;stop-color:#ddae59"
         offset="0.505155"
         id="stop552" />
      <stop
         style="stop-opacity:1;stop-color:#ffd659"
         offset="0.768041"
         id="stop554" />
      <stop
         style="stop-opacity:1;stop-color:#ddae59"
         offset="1"
         id="stop556" />
    </linearGradient>
    <clipPath
       clipPathUnits="userSpaceOnUse"
       id="clipPath568">
      <path
         d="m 490.085,345.608 c 0,-0.888 0.72,-1.608 1.608,-1.608 v 0 c 0.888,0 1.607,0.72 1.607,1.608 v 0 c 0,0.887 -0.719,1.607 -1.607,1.607 v 0 c -0.888,0 -1.608,-0.72 -1.608,-1.607"
         id="path566" />
    </clipPath>
    <linearGradient
       x1="0"
       y1="0"
       x2="1"
       y2="0"
       gradientUnits="userSpaceOnUse"
       gradientTransform="matrix(112.94047,-124.52409,-124.52409,-112.94047,333.21841,520.33563)"
       spreadMethod="pad"
       id="linearGradient584">
      <stop
         style="stop-opacity:1;stop-color:#ddae59"
         offset="0"
         id="stop574" />
      <stop
         style="stop-opacity:1;stop-color:#ffd659"
         offset="0.237113"
         id="stop576" />
      <stop
         style="stop-opacity:1;stop-color:#ddae59"
         offset="0.505155"
         id="stop578" />
      <stop
         style="stop-opacity:1;stop-color:#ffd659"
         offset="0.768041"
         id="stop580" />
      <stop
         style="stop-opacity:1;stop-color:#ddae59"
         offset="1"
         id="stop582" />
    </linearGradient>
    <clipPath
       clipPathUnits="userSpaceOnUse"
       id="clipPath594">
      <path
         d="m 475.666,353.154 c 0,-0.889 0.719,-1.609 1.608,-1.609 v 0 c 0.887,0 1.607,0.72 1.607,1.609 v 0 c 0,0.887 -0.72,1.607 -1.607,1.607 v 0 c -0.889,0 -1.608,-0.72 -1.608,-1.607"
         id="path592" />
    </clipPath>
    <linearGradient
       x1="0"
       y1="0"
       x2="1"
       y2="0"
       gradientUnits="userSpaceOnUse"
       gradientTransform="matrix(112.94048,-124.52411,-124.52411,-112.94048,329.06213,516.56586)"
       spreadMethod="pad"
       id="linearGradient610">
      <stop
         style="stop-opacity:1;stop-color:#ddae59"
         offset="0"
         id="stop600" />
      <stop
         style="stop-opacity:1;stop-color:#ffd659"
         offset="0.237113"
         id="stop602" />
      <stop
         style="stop-opacity:1;stop-color:#ddae59"
         offset="0.505155"
         id="stop604" />
      <stop
         style="stop-opacity:1;stop-color:#ffd659"
         offset="0.768041"
         id="stop606" />
      <stop
         style="stop-opacity:1;stop-color:#ddae59"
         offset="1"
         id="stop608" />
    </linearGradient>
    <clipPath
       clipPathUnits="userSpaceOnUse"
       id="clipPath620">
      <path
         d="m 106.7,345.608 c 0,-0.888 0.72,-1.608 1.608,-1.608 v 0 c 0.887,0 1.607,0.72 1.607,1.608 v 0 c 0,0.887 -0.72,1.607 -1.607,1.607 v 0 c -0.888,0 -1.608,-0.72 -1.608,-1.607"
         id="path618" />
    </clipPath>
    <linearGradient
       x1="0"
       y1="0"
       x2="1"
       y2="0"
       gradientUnits="userSpaceOnUse"
       gradientTransform="matrix(112.94048,-124.52411,-124.52411,-112.94048,122.86963,329.55179)"
       spreadMethod="pad"
       id="linearGradient636">
      <stop
         style="stop-opacity:1;stop-color:#ddae59"
         offset="0"
         id="stop626" />
      <stop
         style="stop-opacity:1;stop-color:#ffd659"
         offset="0.237113"
         id="stop628" />
      <stop
         style="stop-opacity:1;stop-color:#ddae59"
         offset="0.505155"
         id="stop630" />
      <stop
         style="stop-opacity:1;stop-color:#ffd659"
         offset="0.768041"
         id="stop632" />
      <stop
         style="stop-opacity:1;stop-color:#ddae59"
         offset="1"
         id="stop634" />
    </linearGradient>
    <clipPath
       clipPathUnits="userSpaceOnUse"
       id="clipPath646">
      <path
         d="m 398.426,361.096 c 0,-0.887 0.72,-1.607 1.609,-1.607 v 0 c 0.887,0 1.607,0.72 1.607,1.607 v 0 c 0,0.888 -0.72,1.608 -1.607,1.608 v 0 c -0.889,0 -1.609,-0.72 -1.609,-1.608"
         id="path644" />
    </clipPath>
    <linearGradient
       x1="0"
       y1="0"
       x2="1"
       y2="0"
       gradientUnits="userSpaceOnUse"
       gradientTransform="matrix(112.94131,-124.52503,-124.52503,-112.94131,290.63586,481.71545)"
       spreadMethod="pad"
       id="linearGradient662">
      <stop
         style="stop-opacity:1;stop-color:#ddae59"
         offset="0"
         id="stop652" />
      <stop
         style="stop-opacity:1;stop-color:#ffd659"
         offset="0.237113"
         id="stop654" />
      <stop
         style="stop-opacity:1;stop-color:#ddae59"
         offset="0.505155"
         id="stop656" />
      <stop
         style="stop-opacity:1;stop-color:#ffd659"
         offset="0.768041"
         id="stop658" />
      <stop
         style="stop-opacity:1;stop-color:#ddae59"
         offset="1"
         id="stop660" />
    </linearGradient>
    <clipPath
       clipPathUnits="userSpaceOnUse"
       id="clipPath672">
      <path
         d="m 198.358,361.096 c 0,-0.887 0.72,-1.607 1.608,-1.607 v 0 c 0.888,0 1.607,0.72 1.607,1.607 v 0 c 0,0.888 -0.719,1.608 -1.607,1.608 v 0 c -0.888,0 -1.608,-0.72 -1.608,-1.608"
         id="path670" />
    </clipPath>
    <linearGradient
       x1="0"
       y1="0"
       x2="1"
       y2="0"
       gradientUnits="userSpaceOnUse"
       gradientTransform="matrix(112.94131,-124.52503,-124.52503,-112.94131,180.8667,382.15454)"
       spreadMethod="pad"
       id="linearGradient688">
      <stop
         style="stop-opacity:1;stop-color:#ddae59"
         offset="0"
         id="stop678" />
      <stop
         style="stop-opacity:1;stop-color:#ffd659"
         offset="0.237113"
         id="stop680" />
      <stop
         style="stop-opacity:1;stop-color:#ddae59"
         offset="0.505155"
         id="stop682" />
      <stop
         style="stop-opacity:1;stop-color:#ffd659"
         offset="0.768041"
         id="stop684" />
      <stop
         style="stop-opacity:1;stop-color:#ddae59"
         offset="1"
         id="stop686" />
    </linearGradient>
    <clipPath
       clipPathUnits="userSpaceOnUse"
       id="clipPath698">
      <path
         d="m 353.533,359.751 c 0,-0.889 0.719,-1.608 1.607,-1.608 v 0 c 0.887,0 1.607,0.719 1.607,1.608 v 0 c 0,0.887 -0.72,1.607 -1.607,1.607 v 0 c -0.888,0 -1.607,-0.72 -1.607,-1.607"
         id="path696" />
    </clipPath>
    <linearGradient
       x1="0"
       y1="0"
       x2="1"
       y2="0"
       gradientUnits="userSpaceOnUse"
       gradientTransform="matrix(112.94066,-124.52431,-124.52431,-112.94066,265.33481,458.7662)"
       spreadMethod="pad"
       id="linearGradient714">
      <stop
         style="stop-opacity:1;stop-color:#ddae59"
         offset="0"
         id="stop704" />
      <stop
         style="stop-opacity:1;stop-color:#ffd659"
         offset="0.237113"
         id="stop706" />
      <stop
         style="stop-opacity:1;stop-color:#ddae59"
         offset="0.505155"
         id="stop708" />
      <stop
         style="stop-opacity:1;stop-color:#ffd659"
         offset="0.768041"
         id="stop710" />
      <stop
         style="stop-opacity:1;stop-color:#ddae59"
         offset="1"
         id="stop712" />
    </linearGradient>
    <clipPath
       clipPathUnits="userSpaceOnUse"
       id="clipPath724">
      <path
         d="m 243.253,359.751 c 0,-0.889 0.72,-1.608 1.607,-1.608 v 0 c 0.888,0 1.608,0.719 1.608,1.608 v 0 c 0,0.887 -0.72,1.607 -1.608,1.607 v 0 c -0.887,0 -1.607,-0.72 -1.607,-1.607"
         id="path722" />
    </clipPath>
    <linearGradient
       x1="0"
       y1="0"
       x2="1"
       y2="0"
       gradientUnits="userSpaceOnUse"
       gradientTransform="matrix(112.94066,-124.52431,-124.52431,-112.94066,204.82889,403.88779)"
       spreadMethod="pad"
       id="linearGradient740">
      <stop
         style="stop-opacity:1;stop-color:#ddae59"
         offset="0"
         id="stop730" />
      <stop
         style="stop-opacity:1;stop-color:#ffd659"
         offset="0.237113"
         id="stop732" />
      <stop
         style="stop-opacity:1;stop-color:#ddae59"
         offset="0.505155"
         id="stop734" />
      <stop
         style="stop-opacity:1;stop-color:#ffd659"
         offset="0.768041"
         id="stop736" />
      <stop
         style="stop-opacity:1;stop-color:#ddae59"
         offset="1"
         id="stop738" />
    </linearGradient>
    <clipPath
       clipPathUnits="userSpaceOnUse"
       id="clipPath750">
      <path
         d="m 322.198,367.904 c 0,-0.888 0.719,-1.608 1.607,-1.608 v 0 c 0.888,0 1.608,0.72 1.608,1.608 v 0 c 0,0.887 -0.72,1.607 -1.608,1.607 v 0 c -0.888,0 -1.607,-0.72 -1.607,-1.607"
         id="path748" />
    </clipPath>
    <linearGradient
       x1="0"
       y1="0"
       x2="1"
       y2="0"
       gradientUnits="userSpaceOnUse"
       gradientTransform="matrix(112.93895,-124.52242,-124.52242,-112.93895,252.20114,446.8519)"
       spreadMethod="pad"
       id="linearGradient766">
      <stop
         style="stop-opacity:1;stop-color:#ddae59"
         offset="0"
         id="stop756" />
      <stop
         style="stop-opacity:1;stop-color:#ffd659"
         offset="0.237113"
         id="stop758" />
      <stop
         style="stop-opacity:1;stop-color:#ddae59"
         offset="0.505155"
         id="stop760" />
      <stop
         style="stop-opacity:1;stop-color:#ffd659"
         offset="0.768041"
         id="stop762" />
      <stop
         style="stop-opacity:1;stop-color:#ddae59"
         offset="1"
         id="stop764" />
    </linearGradient>
    <clipPath
       clipPathUnits="userSpaceOnUse"
       id="clipPath776">
      <path
         d="m 274.587,367.904 c 0,-0.888 0.72,-1.608 1.608,-1.608 v 0 c 0.887,0 1.607,0.72 1.607,1.608 v 0 c 0,0.887 -0.72,1.607 -1.607,1.607 v 0 c -0.888,0 -1.608,-0.72 -1.608,-1.607"
         id="path774" />
    </clipPath>
    <linearGradient
       x1="0"
       y1="0"
       x2="1"
       y2="0"
       gradientUnits="userSpaceOnUse"
       gradientTransform="matrix(112.9388,-124.52226,-124.52226,-112.9388,226.07903,423.15961)"
       spreadMethod="pad"
       id="linearGradient792">
      <stop
         style="stop-opacity:1;stop-color:#ddae59"
         offset="0"
         id="stop782" />
      <stop
         style="stop-opacity:1;stop-color:#ffd659"
         offset="0.237113"
         id="stop784" />
      <stop
         style="stop-opacity:1;stop-color:#ddae59"
         offset="0.505155"
         id="stop786" />
      <stop
         style="stop-opacity:1;stop-color:#ffd659"
         offset="0.768041"
         id="stop788" />
      <stop
         style="stop-opacity:1;stop-color:#ddae59"
         offset="1"
         id="stop790" />
    </linearGradient>
    <clipPath
       clipPathUnits="userSpaceOnUse"
       id="clipPath802">
      <path
         d="m 299.207,377.051 c -5.86,-11.899 -14.469,-22.502 -24.892,-30.655 v 0 c -0.349,-0.274 -0.441,-0.764 -0.218,-1.143 v 0 c 0.163,-0.279 0.456,-0.44 0.762,-0.44 v 0 c 0.115,0 0.23,0.022 0.341,0.069 v 0 l 1.221,0.509 c 0.355,0.147 0.562,0.499 0.545,0.86 v 0 c 9.479,7.77 17.392,17.541 23.034,28.448 v 0 c 5.639,-10.907 13.554,-20.678 23.035,-28.445 v 0 c -0.019,-0.364 0.189,-0.716 0.544,-0.863 v 0 l 1.224,-0.509 c 0.405,-0.172 0.876,-0.013 1.102,0.371 v 0 c 0.223,0.383 0.129,0.869 -0.219,1.143 v 0 c -10.424,8.153 -19.034,18.756 -24.893,30.655 v 0 c -0.148,0.305 -0.456,0.495 -0.793,0.495 v 0 c -0.338,0 -0.644,-0.19 -0.793,-0.495"
         id="path800" />
    </clipPath>
    <linearGradient
       x1="0"
       y1="0"
       x2="1"
       y2="0"
       gradientUnits="userSpaceOnUse"
       gradientTransform="matrix(112.93963,-124.52317,-124.52317,-112.93963,228.91901,425.69211)"
       spreadMethod="pad"
       id="linearGradient818">
      <stop
         style="stop-opacity:1;stop-color:#ddae59"
         offset="0"
         id="stop808" />
      <stop
         style="stop-opacity:1;stop-color:#ffd659"
         offset="0.237113"
         id="stop810" />
      <stop
         style="stop-opacity:1;stop-color:#ddae59"
         offset="0.505155"
         id="stop812" />
      <stop
         style="stop-opacity:1;stop-color:#ffd659"
         offset="0.768041"
         id="stop814" />
      <stop
         style="stop-opacity:1;stop-color:#ddae59"
         offset="1"
         id="stop816" />
    </linearGradient>
    <clipPath
       clipPathUnits="userSpaceOnUse"
       id="clipPath828">
      <path
         d="m 299.122,383.063 v -37.365 c 0,-0.49 0.396,-0.885 0.884,-0.885 v 0 c 0.489,0 0.884,0.395 0.884,0.885 v 0 37.365 c 0,0.49 -0.395,0.885 -0.884,0.885 v 0 c -0.488,0 -0.884,-0.395 -0.884,-0.885"
         id="path826" />
    </clipPath>
    <linearGradient
       x1="0"
       y1="0"
       x2="1"
       y2="0"
       gradientUnits="userSpaceOnUse"
       gradientTransform="matrix(112.93931,-124.52282,-124.52282,-112.93931,237.39018,433.41907)"
       spreadMethod="pad"
       id="linearGradient844">
      <stop
         style="stop-opacity:1;stop-color:#ddae59"
         offset="0"
         id="stop834" />
      <stop
         style="stop-opacity:1;stop-color:#ffd659"
         offset="0.237113"
         id="stop836" />
      <stop
         style="stop-opacity:1;stop-color:#ddae59"
         offset="0.505155"
         id="stop838" />
      <stop
         style="stop-opacity:1;stop-color:#ffd659"
         offset="0.768041"
         id="stop840" />
      <stop
         style="stop-opacity:1;stop-color:#ddae59"
         offset="1"
         id="stop842" />
    </linearGradient>
    <clipPath
       clipPathUnits="userSpaceOnUse"
       id="clipPath854">
      <path
         d="m 318.414,381.72 c -4.445,0 -8.948,-1.941 -12.367,-5.338 v 0 c -2.873,-2.851 -4.949,-6.624 -6.047,-10.967 v 0 c -1.097,4.339 -3.175,8.113 -6.046,10.967 v 0 c -3.453,3.432 -8.084,5.303 -12.497,5.338 v 0 c -4.835,-0.038 -9.526,-2.55 -11.952,-6.396 v 0 c -2.633,-4.169 -2.493,-9.704 0.337,-13.463 v 0 c 1.859,-2.461 4.774,-3.953 7.617,-3.953 v 0 c 0.287,0 0.576,0.017 0.861,0.047 v 0 c 3.464,0.375 6.374,3.115 6.771,6.377 v 0 c 0.329,2.691 -1.101,5.479 -3.478,6.785 v 0 c -1.243,0.681 -2.573,0.885 -3.747,0.58 v 0 c -1.457,-0.379 -2.561,-1.557 -2.748,-2.932 v 0 c -0.065,-0.483 0.274,-0.929 0.757,-0.995 v 0 c 0.479,-0.069 0.929,0.273 0.996,0.757 v 0 c 0.087,0.649 0.693,1.265 1.44,1.457 v 0 c 0.728,0.191 1.62,0.034 2.451,-0.418 v 0 c 1.73,-0.951 2.813,-3.061 2.574,-5.02 v 0 c -0.295,-2.427 -2.582,-4.55 -5.206,-4.832 v 0 c -2.514,-0.264 -5.195,0.989 -6.875,3.215 v 0 c -2.361,3.13 -2.467,7.946 -0.256,11.453 v 0 c 2.115,3.35 6.224,5.535 10.472,5.566 v 0 c 0.038,0.004 0.078,0.004 0.115,0.004 v 0 c 3.984,0 8.031,-1.755 11.122,-4.826 v 0 c 2.859,-2.838 4.866,-6.69 5.808,-11.139 v 0 c 0.327,-1.539 0.528,-3.174 0.6,-4.857 v 0 c 0.021,-0.475 0.41,-0.848 0.884,-0.848 v 0 c 0.474,0 0.864,0.373 0.883,0.848 v 0 c 0.073,1.683 0.274,3.318 0.601,4.857 v 0 c 0.941,4.449 2.949,8.301 5.807,11.139 v 0 c 3.092,3.071 7.138,4.826 11.123,4.826 v 0 c 0.038,0 0.078,0 0.116,-0.004 v 0 c 4.245,-0.031 8.358,-2.216 10.47,-5.566 v 0 c 2.214,-3.507 2.107,-8.323 -0.253,-11.453 v 0 c -1.677,-2.223 -4.362,-3.489 -6.879,-3.215 v 0 c -2.625,0.282 -4.911,2.405 -5.203,4.832 v 0 c -0.241,1.959 0.842,4.069 2.571,5.02 v 0 c 0.836,0.452 1.727,0.606 2.453,0.418 v 0 c 0.747,-0.192 1.353,-0.808 1.441,-1.457 v 0 c 0.065,-0.484 0.496,-0.842 0.995,-0.757 v 0 c 0.483,0.066 0.823,0.512 0.756,0.995 v 0 c -0.184,1.375 -1.29,2.553 -2.747,2.932 v 0 c -1.174,0.302 -2.505,0.101 -3.746,-0.58 v 0 c -2.379,-1.306 -3.811,-4.097 -3.481,-6.785 v 0 c 0.395,-3.259 3.306,-6.002 6.769,-6.377 v 0 c 3.133,-0.342 6.436,1.194 8.484,3.91 v 0 c 2.828,3.755 2.966,9.29 0.335,13.459 v 0 c -2.427,3.846 -7.117,6.358 -11.953,6.396 v 0 z"
         id="path852" />
    </clipPath>
    <linearGradient
       x1="0"
       y1="0"
       x2="1"
       y2="0"
       gradientUnits="userSpaceOnUse"
       gradientTransform="matrix(112.93955,-124.52309,-124.52309,-112.93955,239.62779,435.44904)"
       spreadMethod="pad"
       id="linearGradient870">
      <stop
         style="stop-opacity:1;stop-color:#ddae59"
         offset="0"
         id="stop860" />
      <stop
         style="stop-opacity:1;stop-color:#ffd659"
         offset="0.237113"
         id="stop862" />
      <stop
         style="stop-opacity:1;stop-color:#ddae59"
         offset="0.505155"
         id="stop864" />
      <stop
         style="stop-opacity:1;stop-color:#ffd659"
         offset="0.768041"
         id="stop866" />
      <stop
         style="stop-opacity:1;stop-color:#ddae59"
         offset="1"
         id="stop868" />
    </linearGradient>
    <clipPath
       clipPathUnits="userSpaceOnUse"
       id="clipPath880">
      <path
         d="m 321.415,391.026 c 0.004,-0.487 0.399,-0.883 0.886,-0.883 v 0 h 0.002 0.057 c 5.228,0 10.358,-2.104 14.082,-5.774 v 0 c 3.735,-3.689 5.908,-8.813 5.962,-14.062 v 0 c 0.006,-0.38 0.251,-0.716 0.612,-0.832 v 0 c 0.365,-0.113 0.76,0.009 0.983,0.317 v 0 c 2.769,3.742 7.846,5.845 12.866,5.404 v 0 c 4.641,-0.428 9.281,-2.934 12.725,-6.874 v 0 c 3.275,-3.751 5.639,-10.397 6.759,-15.365 v 0 c 0.095,-0.411 0.458,-0.691 0.863,-0.691 v 0 c 0.063,0 0.129,0.01 0.196,0.023 v 0 c 0.477,0.11 0.775,0.58 0.669,1.057 v 0 c -1.169,5.181 -3.662,12.139 -7.156,16.138 v 0 c -3.743,4.282 -8.807,7.005 -13.893,7.469 v 0 c -4.872,0.44 -9.73,-1.265 -12.989,-4.442 v 0 c -0.559,4.929 -2.813,9.616 -6.355,13.114 v 0 c -4.052,4 -9.635,6.289 -15.324,6.289 v 0 c -0.508,-0.01 -0.945,-0.377 -0.945,-0.888"
         id="path878" />
    </clipPath>
    <linearGradient
       x1="0"
       y1="0"
       x2="1"
       y2="0"
       gradientUnits="userSpaceOnUse"
       gradientTransform="matrix(112.93961,-124.52316,-124.52316,-112.93961,270.53442,463.48035)"
       spreadMethod="pad"
       id="linearGradient896">
      <stop
         style="stop-opacity:1;stop-color:#ddae59"
         offset="0"
         id="stop886" />
      <stop
         style="stop-opacity:1;stop-color:#ffd659"
         offset="0.237113"
         id="stop888" />
      <stop
         style="stop-opacity:1;stop-color:#ddae59"
         offset="0.505155"
         id="stop890" />
      <stop
         style="stop-opacity:1;stop-color:#ffd659"
         offset="0.768041"
         id="stop892" />
      <stop
         style="stop-opacity:1;stop-color:#ddae59"
         offset="1"
         id="stop894" />
    </linearGradient>
    <clipPath
       clipPathUnits="userSpaceOnUse"
       id="clipPath906">
      <path
         d="m 262.315,385.625 c -3.544,-3.498 -5.796,-8.185 -6.354,-13.114 v 0 c -3.26,3.177 -8.15,4.885 -12.986,4.442 v 0 c -5.09,-0.464 -10.154,-3.187 -13.894,-7.469 v 0 c -3.501,-4.006 -5.991,-10.964 -7.155,-16.138 v 0 c -0.108,-0.477 0.192,-0.951 0.668,-1.057 v 0 c 0.066,-0.013 0.132,-0.023 0.196,-0.023 v 0 c 0.404,0 0.769,0.28 0.861,0.691 v 0 c 1.118,4.964 3.478,11.608 6.761,15.365 v 0 c 3.446,3.94 8.083,6.446 12.723,6.874 v 0 c 5.06,0.445 10.095,-1.658 12.863,-5.404 v 0 c 0.225,-0.31 0.628,-0.43 0.983,-0.317 v 0 c 0.362,0.116 0.609,0.452 0.613,0.832 v 0 c 0.054,5.249 2.228,10.373 5.965,14.062 v 0 c 3.721,3.67 8.851,5.774 14.082,5.774 v 0 c 0.017,0 0.042,0.003 0.058,0 v 0 c 0.486,0 0.882,0.396 0.884,0.883 v 0 c 0,0.511 -0.451,0.882 -0.942,0.888 v 0 c -5.692,0 -11.274,-2.292 -15.326,-6.289"
         id="path904" />
    </clipPath>
    <linearGradient
       x1="0"
       y1="0"
       x2="1"
       y2="0"
       gradientUnits="userSpaceOnUse"
       gradientTransform="matrix(112.93967,-124.52322,-124.52322,-112.93967,213.91818,412.13104)"
       spreadMethod="pad"
       id="linearGradient922">
      <stop
         style="stop-opacity:1;stop-color:#ddae59"
         offset="0"
         id="stop912" />
      <stop
         style="stop-opacity:1;stop-color:#ffd659"
         offset="0.237113"
         id="stop914" />
      <stop
         style="stop-opacity:1;stop-color:#ddae59"
         offset="0.505155"
         id="stop916" />
      <stop
         style="stop-opacity:1;stop-color:#ffd659"
         offset="0.768041"
         id="stop918" />
      <stop
         style="stop-opacity:1;stop-color:#ddae59"
         offset="1"
         id="stop920" />
    </linearGradient>
    <clipPath
       clipPathUnits="userSpaceOnUse"
       id="clipPath932">
      <path
         d="m 331.265,399.575 c -2.223,-3.37 -5.495,-6.076 -9.215,-7.623 v 0 c -0.452,-0.189 -0.666,-0.707 -0.477,-1.156 v 0 c 0.188,-0.449 0.712,-0.672 1.154,-0.477 v 0 c 3.803,1.579 7.172,4.272 9.567,7.632 v 0 c 3.175,-1.727 5.778,-4.942 7.372,-9.139 v 0 c 1.124,-2.958 1.34,-6.073 1.57,-9.366 v 0 c 0.082,-1.183 0.163,-2.37 0.289,-3.554 v 0 c 0.047,-0.452 0.433,-0.791 0.879,-0.791 v 0 c 0.032,0 0.062,0.003 0.094,0.006 v 0 c 0.484,0.051 0.835,0.487 0.785,0.973 v 0 c -0.123,1.162 -0.204,2.324 -0.286,3.489 v 0 c -0.226,3.277 -0.458,6.669 -1.679,9.871 v 0 c -1.869,4.919 -5.046,8.631 -8.943,10.448 v 0 c -0.118,0.055 -0.244,0.082 -0.369,0.082 v 0 c -0.288,0 -0.57,-0.141 -0.741,-0.395"
         id="path930" />
    </clipPath>
    <linearGradient
       x1="0"
       y1="0"
       x2="1"
       y2="0"
       gradientUnits="userSpaceOnUse"
       gradientTransform="matrix(112.93958,-124.52312,-124.52312,-112.93958,268.00211,461.18387)"
       spreadMethod="pad"
       id="linearGradient948">
      <stop
         style="stop-opacity:1;stop-color:#ddae59"
         offset="0"
         id="stop938" />
      <stop
         style="stop-opacity:1;stop-color:#ffd659"
         offset="0.237113"
         id="stop940" />
      <stop
         style="stop-opacity:1;stop-color:#ddae59"
         offset="0.505155"
         id="stop942" />
      <stop
         style="stop-opacity:1;stop-color:#ffd659"
         offset="0.768041"
         id="stop944" />
      <stop
         style="stop-opacity:1;stop-color:#ddae59"
         offset="1"
         id="stop946" />
    </linearGradient>
    <clipPath
       clipPathUnits="userSpaceOnUse"
       id="clipPath958">
      <path
         d="m 267.626,399.888 c -3.895,-1.814 -7.072,-5.525 -8.945,-10.448 v 0 c -1.218,-3.2 -1.452,-6.587 -1.68,-9.865 v 0 c -0.08,-1.165 -0.162,-2.329 -0.286,-3.495 v 0 c -0.051,-0.486 0.301,-0.92 0.786,-0.973 v 0 c 0.03,-0.003 0.064,-0.006 0.095,-0.006 v 0 c 0.446,0 0.829,0.339 0.878,0.791 v 0 c 0.127,1.187 0.208,2.374 0.291,3.561 v 0 c 0.228,3.293 0.443,6.404 1.567,9.359 v 0 c 1.6,4.201 4.201,7.416 7.376,9.139 v 0 c 2.395,-3.36 5.763,-6.053 9.563,-7.632 v 0 c 0.448,-0.195 0.969,0.028 1.155,0.477 v 0 c 0.187,0.449 -0.026,0.967 -0.477,1.156 v 0 c -3.717,1.547 -6.989,4.253 -9.212,7.623 v 0 c -0.169,0.253 -0.449,0.396 -0.738,0.396 v 0 c -0.125,0 -0.253,-0.027 -0.373,-0.083"
         id="path956" />
    </clipPath>
    <linearGradient
       x1="0"
       y1="0"
       x2="1"
       y2="0"
       gradientUnits="userSpaceOnUse"
       gradientTransform="matrix(112.93921,-124.52271,-124.52271,-112.93921,229.1553,425.95062)"
       spreadMethod="pad"
       id="linearGradient974">
      <stop
         style="stop-opacity:1;stop-color:#ddae59"
         offset="0"
         id="stop964" />
      <stop
         style="stop-opacity:1;stop-color:#ffd659"
         offset="0.237113"
         id="stop966" />
      <stop
         style="stop-opacity:1;stop-color:#ddae59"
         offset="0.505155"
         id="stop968" />
      <stop
         style="stop-opacity:1;stop-color:#ffd659"
         offset="0.768041"
         id="stop970" />
      <stop
         style="stop-opacity:1;stop-color:#ddae59"
         offset="1"
         id="stop972" />
    </linearGradient>
    <clipPath
       clipPathUnits="userSpaceOnUse"
       id="clipPath984">
      <path
         d="m 309.105,361.123 c -4.054,-2.81 -7.294,-6.655 -9.372,-11.123 v 0 c -0.206,-0.443 -0.014,-0.97 0.43,-1.174 v 0 c 0.119,-0.057 0.247,-0.085 0.372,-0.085 v 0 c 0.333,0 0.652,0.192 0.802,0.511 v 0 c 1.947,4.185 4.98,7.79 8.772,10.421 v 0 c 0.403,0.277 0.503,0.829 0.224,1.228 v 0 c -0.173,0.249 -0.45,0.382 -0.729,0.382 v 0 c -0.175,0 -0.349,-0.052 -0.499,-0.16"
         id="path982" />
    </clipPath>
    <linearGradient
       x1="0"
       y1="0"
       x2="1"
       y2="0"
       gradientUnits="userSpaceOnUse"
       gradientTransform="matrix(112.93866,-124.5221,-124.5221,-112.93866,235.50673,431.71027)"
       spreadMethod="pad"
       id="linearGradient1000">
      <stop
         style="stop-opacity:1;stop-color:#ddae59"
         offset="0"
         id="stop990" />
      <stop
         style="stop-opacity:1;stop-color:#ffd659"
         offset="0.237113"
         id="stop992" />
      <stop
         style="stop-opacity:1;stop-color:#ddae59"
         offset="0.505155"
         id="stop994" />
      <stop
         style="stop-opacity:1;stop-color:#ffd659"
         offset="0.768041"
         id="stop996" />
      <stop
         style="stop-opacity:1;stop-color:#ddae59"
         offset="1"
         id="stop998" />
    </linearGradient>
    <clipPath
       clipPathUnits="userSpaceOnUse"
       id="clipPath1010">
      <path
         d="m 289.666,360.901 c -0.278,-0.399 -0.177,-0.951 0.223,-1.228 v 0 c 3.795,-2.631 6.827,-6.232 8.773,-10.421 v 0 c 0.152,-0.319 0.47,-0.511 0.803,-0.511 v 0 c 0.125,0 0.252,0.028 0.372,0.085 v 0 c 0.444,0.204 0.635,0.731 0.43,1.174 v 0 c -2.08,4.47 -5.32,8.317 -9.37,11.123 v 0 c -0.153,0.107 -0.329,0.159 -0.502,0.159 v 0 c -0.28,0 -0.556,-0.133 -0.729,-0.381"
         id="path1008" />
    </clipPath>
    <linearGradient
       x1="0"
       y1="0"
       x2="1"
       y2="0"
       gradientUnits="userSpaceOnUse"
       gradientTransform="matrix(112.9398,-124.52336,-124.52336,-112.9398,230.1994,426.89761)"
       spreadMethod="pad"
       id="linearGradient1026">
      <stop
         style="stop-opacity:1;stop-color:#ddae59"
         offset="0"
         id="stop1016" />
      <stop
         style="stop-opacity:1;stop-color:#ffd659"
         offset="0.237113"
         id="stop1018" />
      <stop
         style="stop-opacity:1;stop-color:#ddae59"
         offset="0.505155"
         id="stop1020" />
      <stop
         style="stop-opacity:1;stop-color:#ffd659"
         offset="0.768041"
         id="stop1022" />
      <stop
         style="stop-opacity:1;stop-color:#ddae59"
         offset="1"
         id="stop1024" />
    </linearGradient>
  </defs>
  <g
     inkscape:label="Layer 1"
     inkscape:groupmode="layer"
     id="layer1"
     transform="translate(-36.691408,-3.7411468)">
    <g
       id="g172"
       transform="matrix(0.35277776,0,0,-0.35277778,-0.94997866,152.82292)">
      <g
         id="g174"
         clip-path="url(#clipPath178)">
        <g
           id="g180">
          <g
             id="g182">
            <path
               d="m 108.307,346.493 c -0.488,0 -0.884,-0.396 -0.884,-0.886 v 0 c 0,-0.489 0.396,-0.885 0.884,-0.885 v 0 h 383.386 c 0.49,0 0.885,0.396 0.885,0.885 v 0 c 0,0.49 -0.395,0.886 -0.885,0.886 v 0 z"
               style="fill:url(#linearGradient194);stroke:none"
               id="path196" />
          </g>
        </g>
      </g>
    </g>
    <g
       id="g198"
       transform="matrix(0.35277776,0,0,-0.35277778,-0.94997866,152.82292)">
      <g
         id="g200"
         clip-path="url(#clipPath204)">
        <g
           id="g206">
          <g
             id="g208">
            <path
               d="m 299.441,422.396 c -4.414,-3.607 -7.759,-8.568 -9.416,-13.964 v 0 c -0.125,-0.409 0.058,-0.848 0.436,-1.046 v 0 c 1.472,-0.763 2.508,-1.708 3.081,-2.807 v 0 c 0.634,-1.218 0.617,-2.675 -0.046,-3.626 v 0 c -0.628,-0.905 -2.132,-1.294 -2.967,-0.726 v 0 c -0.401,0.277 -0.642,0.833 -0.612,1.42 v 0 c 0.013,0.232 0.093,0.801 0.57,1.061 v 0 c 0.263,0.141 0.438,0.411 0.46,0.71 v 0 c 0.022,0.3 -0.11,0.593 -0.351,0.772 v 0 c -3.663,2.753 -9.129,3.359 -13.314,1.472 v 0 c -0.314,-0.145 -0.517,-0.455 -0.52,-0.801 v 0 c -0.056,-6.659 6.15,-11.393 9.856,-13.619 v 0 c 1.05,-0.631 2.13,-1.234 3.211,-1.837 v 0 c 3.465,-1.927 7.047,-3.924 9.487,-6.904 v 0 c 0.167,-0.207 0.419,-0.327 0.684,-0.327 v 0 c 0.265,0 0.516,0.12 0.685,0.327 v 0 c 2.44,2.982 6.024,4.977 9.49,6.907 v 0 c 1.081,0.603 2.157,1.203 3.206,1.834 v 0 c 3.705,2.226 9.915,6.96 9.859,13.619 v 0 c -0.003,0.346 -0.207,0.656 -0.522,0.801 v 0 c -4.182,1.887 -9.648,1.281 -13.315,-1.472 v 0 c -0.241,-0.179 -0.374,-0.472 -0.351,-0.772 v 0 c 0.021,-0.299 0.194,-0.569 0.461,-0.713 v 0 c 0.478,-0.257 0.559,-0.826 0.571,-1.058 v 0 c 0.029,-0.587 -0.21,-1.143 -0.612,-1.42 v 0 c -0.831,-0.565 -2.339,-0.181 -2.97,0.726 v 0 c -0.66,0.951 -0.678,2.408 -0.047,3.623 v 0 c 0.578,1.102 1.614,2.047 3.083,2.81 v 0 c 0.38,0.198 0.562,0.637 0.436,1.046 v 0 c -1.657,5.396 -5.001,10.357 -9.414,13.964 v 0 c -0.163,0.132 -0.362,0.198 -0.56,0.198 v 0 c -0.199,0 -0.397,-0.066 -0.559,-0.198 m -4.491,-22.454 c 1.042,1.504 1.105,3.641 0.158,5.453 v 0 c -0.648,1.247 -1.715,2.32 -3.174,3.193 v 0 c 1.543,4.578 4.377,8.782 8.066,11.968 v 0 c 3.686,-3.186 6.521,-7.39 8.065,-11.968 v 0 c -1.456,-0.873 -2.524,-1.943 -3.177,-3.193 v 0 c -0.945,-1.812 -0.879,-3.953 0.163,-5.453 v 0 c 1.16,-1.668 3.806,-2.28 5.419,-1.171 v 0 c 0.915,0.625 1.442,1.764 1.379,2.966 v 0 c -0.031,0.606 -0.213,1.165 -0.518,1.624 v 0 c 2.935,1.78 6.916,2.147 10.126,0.914 v 0 c -0.315,-5.491 -5.718,-9.555 -8.986,-11.52 v 0 c -1.031,-0.619 -2.094,-1.208 -3.155,-1.802 v 0 c -3.313,-1.842 -6.726,-3.742 -9.316,-6.546 v 0 c -2.591,2.801 -6.001,4.704 -9.311,6.546 v 0 c -1.064,0.59 -2.127,1.183 -3.16,1.802 v 0 c -3.268,1.965 -8.671,6.029 -8.985,11.52 v 0 c 3.212,1.24 7.196,0.869 10.125,-0.914 v 0 c -0.303,-0.459 -0.485,-1.018 -0.516,-1.624 v 0 c -0.063,-1.202 0.463,-2.341 1.375,-2.966 v 0 c 0.558,-0.382 1.239,-0.559 1.939,-0.559 v 0 c 1.326,0 2.722,0.637 3.483,1.73"
               style="fill:url(#linearGradient220);stroke:none"
               id="path222" />
          </g>
        </g>
      </g>
    </g>
    <g
       id="g224"
       transform="matrix(0.35277776,0,0,-0.35277778,-0.94997866,152.82292)">
      <g
         id="g226"
         clip-path="url(#clipPath230)">
        <g
           id="g232">
          <g
             id="g234">
            <path
               d="m 347.779,365.563 c -1.046,-1.51 -1.419,-3.476 -1.023,-5.394 v 0 c 0.369,-1.796 1.352,-3.271 2.769,-4.16 v 0 c 1.359,-0.851 4.044,-1.19 5.312,0.188 v 0 l 0.238,0.258 c 0.848,0.904 2.013,2.141 1.187,3.936 v 0 c -0.2,0.447 -0.725,0.635 -1.171,0.437 v 0 c -0.446,-0.203 -0.64,-0.728 -0.436,-1.171 v 0 c 0.301,-0.659 0.019,-1.048 -0.87,-1.993 v 0 l -0.248,-0.268 c -0.531,-0.583 -2.21,-0.429 -3.077,0.114 v 0 c -1.002,0.628 -1.702,1.698 -1.972,3.014 v 0 c -0.295,1.428 -0.015,2.936 0.748,4.035 v 0 c 1.488,2.156 4.734,3.079 7.378,2.075 v 0 c 2.534,-0.949 4.515,-3.457 5.048,-6.39 v 0 c 0.798,-4.361 -1.66,-9.164 -5.846,-11.416 v 0 c -3.937,-2.128 -9.067,-2.002 -13.387,0.318 v 0 c -3.943,2.119 -7.102,5.906 -8.892,10.662 v 0 c -0.097,0.254 -0.304,0.449 -0.561,0.534 v 0 c -0.268,0.078 -0.54,0.041 -0.766,-0.113 v 0 l -20.295,-13.827 c -0.402,-0.276 -0.506,-0.826 -0.232,-1.231 v 0 c 0.172,-0.251 0.449,-0.386 0.731,-0.386 v 0 c 0.173,0 0.345,0.05 0.499,0.154 v 0 l 19.384,13.208 c 2,-4.672 5.269,-8.395 9.297,-10.559 v 0 c 4.841,-2.599 10.608,-2.719 15.061,-0.317 v 0 c 4.841,2.607 7.679,8.195 6.747,13.291 v 0 c -0.641,3.531 -3.062,6.564 -6.167,7.729 v 0 c -0.935,0.352 -1.919,0.52 -2.895,0.52 v 0 c -2.592,0 -5.129,-1.184 -6.561,-3.248"
               style="fill:url(#linearGradient246);stroke:none"
               id="path248" />
          </g>
        </g>
      </g>
    </g>
    <g
       id="g250"
       transform="matrix(0.35277776,0,0,-0.35277778,-0.94997866,152.82292)">
      <g
         id="g252"
         clip-path="url(#clipPath256)">
        <g
           id="g258">
          <g
             id="g260">
            <path
               d="m 242.766,368.291 c -3.103,-1.161 -5.524,-4.194 -6.168,-7.727 v 0 c -0.93,-5.098 1.905,-10.686 6.744,-13.293 v 0 c 4.455,-2.405 10.228,-2.282 15.064,0.317 v 0 c 4.029,2.167 7.298,5.891 9.295,10.559 v 0 l 19.385,-13.208 c 0.153,-0.104 0.325,-0.154 0.496,-0.154 v 0 c 0.283,0 0.561,0.135 0.732,0.386 v 0 c 0.276,0.405 0.171,0.955 -0.232,1.231 v 0 l -20.294,13.827 c -0.225,0.147 -0.503,0.188 -0.765,0.109 v 0 c -0.259,-0.081 -0.465,-0.276 -0.561,-0.53 v 0 c -1.787,-4.753 -4.946,-8.54 -8.894,-10.662 v 0 c -4.317,-2.324 -9.449,-2.443 -13.387,-0.318 v 0 c -4.184,2.252 -6.64,7.055 -5.843,11.419 v 0 c 0.535,2.933 2.516,5.438 5.048,6.387 v 0 c 2.647,0.998 5.884,0.078 7.38,-2.075 v 0 c 0.76,-1.099 1.04,-2.607 0.745,-4.035 v 0 c -0.271,-1.316 -0.973,-2.39 -1.974,-3.014 v 0 c -0.844,-0.534 -2.551,-0.684 -3.072,-0.114 v 0 l -0.25,0.268 c -0.889,0.945 -1.173,1.334 -0.87,1.99 v 0 c 0.205,0.446 0.009,0.971 -0.434,1.174 v 0 c -0.439,0.195 -0.969,0.01 -1.173,-0.433 v 0 c -0.827,-1.799 0.338,-3.039 1.188,-3.944 v 0 l 0.238,-0.251 c 1.272,-1.394 3.952,-1.045 5.311,-0.191 v 0 c 1.415,0.889 2.399,2.364 2.768,4.16 v 0 c 0.396,1.918 0.022,3.884 -1.023,5.394 v 0 c -1.429,2.063 -3.965,3.246 -6.559,3.246 v 0 c -0.976,0 -1.959,-0.167 -2.895,-0.518"
               style="fill:url(#linearGradient272);stroke:none"
               id="path274" />
          </g>
        </g>
      </g>
    </g>
    <g
       id="g276"
       transform="matrix(0.35277776,0,0,-0.35277778,-0.94997866,152.82292)">
      <g
         id="g278"
         clip-path="url(#clipPath282)">
        <g
           id="g284">
          <g
             id="g286">
            <path
               d="m 361.462,353.726 c -0.49,0 -0.886,-0.395 -0.886,-0.885 v 0 c 0,-0.49 0.396,-0.885 0.886,-0.885 v 0 h 92.895 c 0.489,0 0.885,0.395 0.885,0.885 v 0 c 0,0.49 -0.396,0.885 -0.885,0.885 v 0 z"
               style="fill:url(#linearGradient298);stroke:none"
               id="path300" />
          </g>
        </g>
      </g>
    </g>
    <g
       id="g302"
       transform="matrix(0.35277776,0,0,-0.35277778,-0.94997866,152.82292)">
      <g
         id="g304"
         clip-path="url(#clipPath308)">
        <g
           id="g310">
          <g
             id="g312">
            <path
               d="m 145.643,353.726 c -0.487,0 -0.883,-0.395 -0.883,-0.885 v 0 c 0,-0.49 0.396,-0.885 0.883,-0.885 v 0 h 92.889 c 0.488,0 0.884,0.395 0.884,0.885 v 0 c 0,0.49 -0.396,0.885 -0.884,0.885 v 0 z"
               style="fill:url(#linearGradient324);stroke:none"
               id="path326" />
          </g>
        </g>
      </g>
    </g>
    <g
       id="g328"
       transform="matrix(0.35277776,0,0,-0.35277778,-0.94997866,152.82292)">
      <g
         id="g330"
         clip-path="url(#clipPath334)">
        <g
           id="g336">
          <g
             id="g338">
            <path
               d="m 376.666,366.499 c -3.243,-1.887 -11.352,-6.996 -16.586,-13.639 v 0 c -0.301,-0.383 -0.236,-0.938 0.148,-1.24 v 0 c 0.16,-0.129 0.354,-0.192 0.546,-0.192 v 0 c 0.26,0 0.521,0.116 0.694,0.34 v 0 c 3.5,4.442 9.516,9.378 16.09,13.205 v 0 c 6,3.497 12.694,4.678 18.386,3.237 v 0 c 2.681,-0.681 4.888,-1.896 6.377,-3.514 v 0 c 1.707,-1.849 2.48,-4.332 2.021,-6.477 v 0 c -0.489,-2.276 -2.527,-4.101 -4.643,-4.15 v 0 c -0.029,-0.004 -0.057,-0.004 -0.082,-0.004 v 0 c -1.057,0 -2.147,0.509 -2.929,1.369 v 0 c -0.71,0.776 -1.052,1.736 -0.945,2.637 v 0 c 0.113,0.964 0.87,1.881 1.925,2.333 v 0 c 0.941,0.405 1.902,0.352 2.574,-0.15 v 0 c 0.383,-0.285 0.945,-0.207 1.237,0.182 v 0 c 0.292,0.392 0.211,0.945 -0.182,1.237 v 0 c -1.18,0.882 -2.8,1.011 -4.33,0.357 v 0 c -1.648,-0.709 -2.79,-2.147 -2.982,-3.751 v 0 c -0.167,-1.41 0.342,-2.879 1.394,-4.037 v 0 c 1.142,-1.253 2.778,-1.95 4.364,-1.944 v 0 c 2.941,0.072 5.664,2.459 6.326,5.551 v 0 c 0.581,2.696 -0.358,5.78 -2.449,8.047 v 0 c -1.72,1.867 -4.226,3.262 -7.243,4.027 v 0 c -1.729,0.442 -3.542,0.659 -5.399,0.659 v 0 c -4.719,0 -9.718,-1.402 -14.312,-4.083"
               style="fill:url(#linearGradient350);stroke:none"
               id="path352" />
          </g>
        </g>
      </g>
    </g>
    <g
       id="g354"
       transform="matrix(0.35277776,0,0,-0.35277778,-0.94997866,152.82292)">
      <g
         id="g356"
         clip-path="url(#clipPath360)">
        <g
           id="g362">
          <g
             id="g364">
            <path
               d="m 203.624,369.923 c -3.017,-0.765 -5.522,-2.156 -7.244,-4.027 v 0 c -2.092,-2.267 -3.028,-5.351 -2.449,-8.047 v 0 c 0.664,-3.092 3.384,-5.479 6.326,-5.551 v 0 c 1.591,-0.019 3.221,0.691 4.362,1.944 v 0 c 1.054,1.158 1.563,2.627 1.395,4.037 v 0 c -0.19,1.604 -1.332,3.039 -2.979,3.749 v 0 c -1.53,0.662 -3.147,0.524 -4.334,-0.355 v 0 c -0.392,-0.292 -0.473,-0.845 -0.182,-1.237 v 0 c 0.293,-0.389 0.846,-0.474 1.238,-0.182 v 0 c 0.675,0.499 1.639,0.555 2.578,0.15 v 0 c 1.054,-0.454 1.809,-1.369 1.924,-2.333 v 0 c 0.107,-0.901 -0.239,-1.861 -0.945,-2.637 v 0 c -0.783,-0.86 -1.873,-1.369 -2.931,-1.369 v 0 c -0.029,0 -0.056,0 -0.084,0.004 v 0 c -2.113,0.049 -4.15,1.874 -4.638,4.15 v 0 c -0.462,2.145 0.312,4.625 2.019,6.477 v 0 c 1.489,1.618 3.695,2.833 6.38,3.514 v 0 c 5.671,1.443 12.377,0.263 18.383,-3.237 v 0 c 6.578,-3.831 12.592,-8.767 16.089,-13.205 v 0 c 0.175,-0.224 0.433,-0.34 0.694,-0.34 v 0 c 0.192,0 0.385,0.063 0.547,0.192 v 0 c 0.384,0.302 0.45,0.857 0.147,1.24 v 0 c -5.227,6.64 -13.341,11.752 -16.587,13.639 v 0 c -4.598,2.681 -9.602,4.073 -14.324,4.073 v 0 c -1.852,0 -3.661,-0.214 -5.385,-0.649"
               style="fill:url(#linearGradient376);stroke:none"
               id="path378" />
          </g>
        </g>
      </g>
    </g>
    <g
       id="g380"
       transform="matrix(0.35277776,0,0,-0.35277778,-0.94997866,152.82292)">
      <g
         id="g382"
         clip-path="url(#clipPath386)">
        <g
           id="g388">
          <g
             id="g390">
            <path
               d="m 413.726,362.479 c -0.251,-0.191 -0.379,-0.498 -0.338,-0.81 v 0 c 0.364,-2.953 -0.732,-6.087 -2.858,-8.172 v 0 c -0.348,-0.342 -0.354,-0.9 -0.012,-1.25 v 0 c 0.342,-0.348 0.901,-0.357 1.25,-0.012 v 0 c 2.166,2.123 3.425,5.165 3.453,8.201 v 0 c 9.357,-3.774 17.033,-6.54 23.441,-8.442 v 0 c 0.084,-0.026 0.169,-0.038 0.251,-0.038 v 0 c 0.382,0 0.734,0.248 0.848,0.634 v 0 c 0.137,0.467 -0.129,0.961 -0.597,1.099 v 0 c -6.644,1.975 -14.678,4.888 -24.567,8.907 v 0 c -0.106,0.044 -0.218,0.065 -0.33,0.065 v 0 c -0.191,0 -0.382,-0.062 -0.541,-0.182"
               style="fill:url(#linearGradient402);stroke:none"
               id="path404" />
          </g>
        </g>
      </g>
    </g>
    <g
       id="g406"
       transform="matrix(0.35277776,0,0,-0.35277778,-0.94997866,152.82292)">
      <g
         id="g408"
         clip-path="url(#clipPath412)">
        <g
           id="g414">
          <g
             id="g416">
            <path
               d="m 185.404,362.596 c -9.885,-4.019 -17.923,-6.932 -24.568,-8.907 v 0 c -0.469,-0.138 -0.735,-0.632 -0.596,-1.099 v 0 c 0.114,-0.386 0.466,-0.634 0.847,-0.634 v 0 c 0.083,0 0.168,0.012 0.252,0.038 v 0 c 6.409,1.905 14.087,4.668 23.438,8.442 v 0 c 0.032,-3.036 1.291,-6.078 3.455,-8.201 v 0 c 0.35,-0.345 0.909,-0.336 1.25,0.012 v 0 c 0.342,0.35 0.336,0.908 -0.012,1.25 v 0 c -2.126,2.085 -3.22,5.219 -2.856,8.172 v 0 c 0.038,0.312 -0.091,0.619 -0.339,0.81 v 0 c -0.157,0.12 -0.348,0.182 -0.54,0.182 v 0 c -0.112,0 -0.225,-0.021 -0.331,-0.065"
               style="fill:url(#linearGradient428);stroke:none"
               id="path430" />
          </g>
        </g>
      </g>
    </g>
    <g
       id="g432"
       transform="matrix(0.35277776,0,0,-0.35277778,-0.94997866,152.82292)">
      <g
         id="g434"
         clip-path="url(#clipPath438)">
        <g
           id="g440">
          <g
             id="g442">
            <path
               d="m 474.45,357.786 c -2.081,-1.372 -2.826,-4.301 -1.626,-6.393 v 0 c 0.804,-1.403 2.371,-2.179 3.755,-1.89 v 0 c 0.857,0.177 1.617,0.81 1.991,1.662 v 0 c 0.335,0.766 0.301,1.582 -0.098,2.242 v 0 c -0.254,0.417 -0.797,0.552 -1.215,0.297 v 0 c -0.417,-0.251 -0.55,-0.794 -0.298,-1.214 v 0 c 0.132,-0.217 0.05,-0.481 -0.009,-0.616 v 0 c -0.142,-0.323 -0.431,-0.578 -0.726,-0.637 v 0 c -0.713,-0.154 -1.514,0.415 -1.868,1.036 v 0 c -0.726,1.265 -0.216,3.19 1.067,4.037 v 0 c 1.291,0.851 3.21,0.685 4.45,-0.386 v 0 c 1.208,-1.036 1.776,-2.86 1.415,-4.533 v 0 c -0.348,-1.611 -1.503,-3.09 -3.089,-3.96 v 0 c -1.51,-0.828 -3.846,-0.938 -5.931,-0.938 v 0 c -0.49,0 -0.885,-0.396 -0.885,-0.886 v 0 c 0,-0.489 0.395,-0.885 0.885,-0.885 v 0 c 2.427,0 4.926,0.141 6.779,1.159 v 0 c 2.031,1.111 3.513,3.033 3.968,5.136 v 0 c 0.503,2.323 -0.277,4.778 -1.99,6.251 v 0 c -1.048,0.895 -2.382,1.354 -3.697,1.354 v 0 c -1.018,0 -2.025,-0.275 -2.878,-0.836"
               style="fill:url(#linearGradient454);stroke:none"
               id="path456" />
          </g>
        </g>
      </g>
    </g>
    <g
       id="g458"
       transform="matrix(0.35277776,0,0,-0.35277778,-0.94997866,152.82292)">
      <g
         id="g460"
         clip-path="url(#clipPath464)">
        <g
           id="g466">
          <g
             id="g468">
            <path
               d="m 118.976,357.268 c -1.713,-1.473 -2.495,-3.928 -1.99,-6.255 v 0 c 0.454,-2.099 1.936,-4.021 3.964,-5.132 v 0 c 1.86,-1.021 4.472,-1.159 6.782,-1.159 v 0 c 0.488,0 0.883,0.396 0.883,0.885 v 0 c 0,0.49 -0.395,0.886 -0.883,0.886 v 0 c -2.087,0 -4.421,0.11 -5.931,0.938 v 0 c -1.585,0.87 -2.739,2.349 -3.087,3.96 v 0 c -0.363,1.673 0.205,3.497 1.414,4.533 v 0 c 1.248,1.071 3.157,1.237 4.448,0.386 v 0 c 1.285,-0.847 1.791,-2.772 1.065,-4.037 v 0 c -0.354,-0.615 -1.129,-1.205 -1.865,-1.036 v 0 c -0.292,0.059 -0.582,0.314 -0.723,0.637 v 0 c -0.061,0.135 -0.142,0.399 -0.012,0.618 v 0 c 0.253,0.418 0.118,0.961 -0.3,1.212 v 0 c -0.422,0.261 -0.964,0.12 -1.213,-0.301 v 0 c -0.397,-0.656 -0.432,-1.475 -0.095,-2.242 v 0 c 0.373,-0.848 1.134,-1.481 1.987,-1.658 v 0 c 1.407,-0.291 2.951,0.487 3.754,1.89 v 0 c 1.203,2.092 0.458,5.021 -1.624,6.393 v 0 c -0.853,0.562 -1.859,0.837 -2.876,0.837 v 0 c -1.317,0 -2.653,-0.461 -3.698,-1.355"
               style="fill:url(#linearGradient480);stroke:none"
               id="path482" />
          </g>
        </g>
      </g>
    </g>
    <g
       id="g484"
       transform="matrix(0.35277776,0,0,-0.35277778,-0.94997866,152.82292)">
      <g
         id="g486"
         clip-path="url(#clipPath490)">
        <g
           id="g492">
          <g
             id="g494">
            <path
               d="m 453.314,352.841 c 0,-0.888 0.72,-1.607 1.607,-1.607 v 0 c 0.889,0 1.608,0.719 1.608,1.607 v 0 c 0,0.889 -0.719,1.608 -1.608,1.608 v 0 c -0.887,0 -1.607,-0.719 -1.607,-1.608"
               style="fill:url(#linearGradient506);stroke:none"
               id="path508" />
          </g>
        </g>
      </g>
    </g>
    <g
       id="g510"
       transform="matrix(0.35277776,0,0,-0.35277778,-0.94997866,152.82292)">
      <g
         id="g512"
         clip-path="url(#clipPath516)">
        <g
           id="g518">
          <g
             id="g520">
            <path
               d="m 143.471,352.841 c 0,-0.888 0.72,-1.607 1.608,-1.607 v 0 c 0.887,0 1.607,0.719 1.607,1.607 v 0 c 0,0.889 -0.72,1.608 -1.607,1.608 v 0 c -0.888,0 -1.608,-0.719 -1.608,-1.608"
               style="fill:url(#linearGradient532);stroke:none"
               id="path534" />
          </g>
        </g>
      </g>
    </g>
    <g
       id="g536"
       transform="matrix(0.35277776,0,0,-0.35277778,-0.94997866,152.82292)">
      <g
         id="g538"
         clip-path="url(#clipPath542)">
        <g
           id="g544">
          <g
             id="g546">
            <path
               d="m 120.677,352.948 c 0,-0.888 0.72,-1.608 1.609,-1.608 v 0 c 0.887,0 1.607,0.72 1.607,1.608 v 0 c 0,0.888 -0.72,1.607 -1.607,1.607 v 0 c -0.889,0 -1.609,-0.719 -1.609,-1.607"
               style="fill:url(#linearGradient558);stroke:none"
               id="path560" />
          </g>
        </g>
      </g>
    </g>
    <g
       id="g562"
       transform="matrix(0.35277776,0,0,-0.35277778,-0.94997866,152.82292)">
      <g
         id="g564"
         clip-path="url(#clipPath568)">
        <g
           id="g570">
          <g
             id="g572">
            <path
               d="m 490.085,345.608 c 0,-0.888 0.72,-1.608 1.608,-1.608 v 0 c 0.888,0 1.607,0.72 1.607,1.608 v 0 c 0,0.887 -0.719,1.607 -1.607,1.607 v 0 c -0.888,0 -1.608,-0.72 -1.608,-1.607"
               style="fill:url(#linearGradient584);stroke:none"
               id="path586" />
          </g>
        </g>
      </g>
    </g>
    <g
       id="g588"
       transform="matrix(0.35277776,0,0,-0.35277778,-0.94997866,152.82292)">
      <g
         id="g590"
         clip-path="url(#clipPath594)">
        <g
           id="g596">
          <g
             id="g598">
            <path
               d="m 475.666,353.154 c 0,-0.889 0.719,-1.609 1.608,-1.609 v 0 c 0.887,0 1.607,0.72 1.607,1.609 v 0 c 0,0.887 -0.72,1.607 -1.607,1.607 v 0 c -0.889,0 -1.608,-0.72 -1.608,-1.607"
               style="fill:url(#linearGradient610);stroke:none"
               id="path612" />
          </g>
        </g>
      </g>
    </g>
    <g
       id="g614"
       transform="matrix(0.35277776,0,0,-0.35277778,-0.94997866,152.82292)">
      <g
         id="g616"
         clip-path="url(#clipPath620)">
        <g
           id="g622">
          <g
             id="g624">
            <path
               d="m 106.7,345.608 c 0,-0.888 0.72,-1.608 1.608,-1.608 v 0 c 0.887,0 1.607,0.72 1.607,1.608 v 0 c 0,0.887 -0.72,1.607 -1.607,1.607 v 0 c -0.888,0 -1.608,-0.72 -1.608,-1.607"
               style="fill:url(#linearGradient636);stroke:none"
               id="path638" />
          </g>
        </g>
      </g>
    </g>
    <g
       id="g640"
       transform="matrix(0.35277776,0,0,-0.35277778,-0.94997866,152.82292)">
      <g
         id="g642"
         clip-path="url(#clipPath646)">
        <g
           id="g648">
          <g
             id="g650">
            <path
               d="m 398.426,361.096 c 0,-0.887 0.72,-1.607 1.609,-1.607 v 0 c 0.887,0 1.607,0.72 1.607,1.607 v 0 c 0,0.888 -0.72,1.608 -1.607,1.608 v 0 c -0.889,0 -1.609,-0.72 -1.609,-1.608"
               style="fill:url(#linearGradient662);stroke:none"
               id="path664" />
          </g>
        </g>
      </g>
    </g>
    <g
       id="g666"
       transform="matrix(0.35277776,0,0,-0.35277778,-0.94997866,152.82292)">
      <g
         id="g668"
         clip-path="url(#clipPath672)">
        <g
           id="g674">
          <g
             id="g676">
            <path
               d="m 198.358,361.096 c 0,-0.887 0.72,-1.607 1.608,-1.607 v 0 c 0.888,0 1.607,0.72 1.607,1.607 v 0 c 0,0.888 -0.719,1.608 -1.607,1.608 v 0 c -0.888,0 -1.608,-0.72 -1.608,-1.608"
               style="fill:url(#linearGradient688);stroke:none"
               id="path690" />
          </g>
        </g>
      </g>
    </g>
    <g
       id="g692"
       transform="matrix(0.35277776,0,0,-0.35277778,-0.94997866,152.82292)">
      <g
         id="g694"
         clip-path="url(#clipPath698)">
        <g
           id="g700">
          <g
             id="g702">
            <path
               d="m 353.533,359.751 c 0,-0.889 0.719,-1.608 1.607,-1.608 v 0 c 0.887,0 1.607,0.719 1.607,1.608 v 0 c 0,0.887 -0.72,1.607 -1.607,1.607 v 0 c -0.888,0 -1.607,-0.72 -1.607,-1.607"
               style="fill:url(#linearGradient714);stroke:none"
               id="path716" />
          </g>
        </g>
      </g>
    </g>
    <g
       id="g718"
       transform="matrix(0.35277776,0,0,-0.35277778,-0.94997866,152.82292)">
      <g
         id="g720"
         clip-path="url(#clipPath724)">
        <g
           id="g726">
          <g
             id="g728">
            <path
               d="m 243.253,359.751 c 0,-0.889 0.72,-1.608 1.607,-1.608 v 0 c 0.888,0 1.608,0.719 1.608,1.608 v 0 c 0,0.887 -0.72,1.607 -1.608,1.607 v 0 c -0.887,0 -1.607,-0.72 -1.607,-1.607"
               style="fill:url(#linearGradient740);stroke:none"
               id="path742" />
          </g>
        </g>
      </g>
    </g>
    <g
       id="g744"
       transform="matrix(0.35277776,0,0,-0.35277778,-0.94997866,152.82292)">
      <g
         id="g746"
         clip-path="url(#clipPath750)">
        <g
           id="g752">
          <g
             id="g754">
            <path
               d="m 322.198,367.904 c 0,-0.888 0.719,-1.608 1.607,-1.608 v 0 c 0.888,0 1.608,0.72 1.608,1.608 v 0 c 0,0.887 -0.72,1.607 -1.608,1.607 v 0 c -0.888,0 -1.607,-0.72 -1.607,-1.607"
               style="fill:url(#linearGradient766);stroke:none"
               id="path768" />
          </g>
        </g>
      </g>
    </g>
    <g
       id="g770"
       transform="matrix(0.35277776,0,0,-0.35277778,-0.94997866,152.82292)">
      <g
         id="g772"
         clip-path="url(#clipPath776)">
        <g
           id="g778">
          <g
             id="g780">
            <path
               d="m 274.587,367.904 c 0,-0.888 0.72,-1.608 1.608,-1.608 v 0 c 0.887,0 1.607,0.72 1.607,1.608 v 0 c 0,0.887 -0.72,1.607 -1.607,1.607 v 0 c -0.888,0 -1.608,-0.72 -1.608,-1.607"
               style="fill:url(#linearGradient792);stroke:none"
               id="path794" />
          </g>
        </g>
      </g>
    </g>
    <g
       id="g796"
       transform="matrix(0.35277776,0,0,-0.35277778,-0.94997866,152.82292)">
      <g
         id="g798"
         clip-path="url(#clipPath802)">
        <g
           id="g804">
          <g
             id="g806">
            <path
               d="m 299.207,377.051 c -5.86,-11.899 -14.469,-22.502 -24.892,-30.655 v 0 c -0.349,-0.274 -0.441,-0.764 -0.218,-1.143 v 0 c 0.163,-0.279 0.456,-0.44 0.762,-0.44 v 0 c 0.115,0 0.23,0.022 0.341,0.069 v 0 l 1.221,0.509 c 0.355,0.147 0.562,0.499 0.545,0.86 v 0 c 9.479,7.77 17.392,17.541 23.034,28.448 v 0 c 5.639,-10.907 13.554,-20.678 23.035,-28.445 v 0 c -0.019,-0.364 0.189,-0.716 0.544,-0.863 v 0 l 1.224,-0.509 c 0.405,-0.172 0.876,-0.013 1.102,0.371 v 0 c 0.223,0.383 0.129,0.869 -0.219,1.143 v 0 c -10.424,8.153 -19.034,18.756 -24.893,30.655 v 0 c -0.148,0.305 -0.456,0.495 -0.793,0.495 v 0 c -0.338,0 -0.644,-0.19 -0.793,-0.495"
               style="fill:url(#linearGradient818);stroke:none"
               id="path820" />
          </g>
        </g>
      </g>
    </g>
    <g
       id="g822"
       transform="matrix(0.35277776,0,0,-0.35277778,-0.94997866,152.82292)">
      <g
         id="g824"
         clip-path="url(#clipPath828)">
        <g
           id="g830">
          <g
             id="g832">
            <path
               d="m 299.122,383.063 v -37.365 c 0,-0.49 0.396,-0.885 0.884,-0.885 v 0 c 0.489,0 0.884,0.395 0.884,0.885 v 0 37.365 c 0,0.49 -0.395,0.885 -0.884,0.885 v 0 c -0.488,0 -0.884,-0.395 -0.884,-0.885"
               style="fill:url(#linearGradient844);stroke:none"
               id="path846" />
          </g>
        </g>
      </g>
    </g>
    <g
       id="g848"
       transform="matrix(0.35277776,0,0,-0.35277778,-0.94997866,152.82292)">
      <g
         id="g850"
         clip-path="url(#clipPath854)">
        <g
           id="g856">
          <g
             id="g858">
            <path
               d="m 318.414,381.72 c -4.445,0 -8.948,-1.941 -12.367,-5.338 v 0 c -2.873,-2.851 -4.949,-6.624 -6.047,-10.967 v 0 c -1.097,4.339 -3.175,8.113 -6.046,10.967 v 0 c -3.453,3.432 -8.084,5.303 -12.497,5.338 v 0 c -4.835,-0.038 -9.526,-2.55 -11.952,-6.396 v 0 c -2.633,-4.169 -2.493,-9.704 0.337,-13.463 v 0 c 1.859,-2.461 4.774,-3.953 7.617,-3.953 v 0 c 0.287,0 0.576,0.017 0.861,0.047 v 0 c 3.464,0.375 6.374,3.115 6.771,6.377 v 0 c 0.329,2.691 -1.101,5.479 -3.478,6.785 v 0 c -1.243,0.681 -2.573,0.885 -3.747,0.58 v 0 c -1.457,-0.379 -2.561,-1.557 -2.748,-2.932 v 0 c -0.065,-0.483 0.274,-0.929 0.757,-0.995 v 0 c 0.479,-0.069 0.929,0.273 0.996,0.757 v 0 c 0.087,0.649 0.693,1.265 1.44,1.457 v 0 c 0.728,0.191 1.62,0.034 2.451,-0.418 v 0 c 1.73,-0.951 2.813,-3.061 2.574,-5.02 v 0 c -0.295,-2.427 -2.582,-4.55 -5.206,-4.832 v 0 c -2.514,-0.264 -5.195,0.989 -6.875,3.215 v 0 c -2.361,3.13 -2.467,7.946 -0.256,11.453 v 0 c 2.115,3.35 6.224,5.535 10.472,5.566 v 0 c 0.038,0.004 0.078,0.004 0.115,0.004 v 0 c 3.984,0 8.031,-1.755 11.122,-4.826 v 0 c 2.859,-2.838 4.866,-6.69 5.808,-11.139 v 0 c 0.327,-1.539 0.528,-3.174 0.6,-4.857 v 0 c 0.021,-0.475 0.41,-0.848 0.884,-0.848 v 0 c 0.474,0 0.864,0.373 0.883,0.848 v 0 c 0.073,1.683 0.274,3.318 0.601,4.857 v 0 c 0.941,4.449 2.949,8.301 5.807,11.139 v 0 c 3.092,3.071 7.138,4.826 11.123,4.826 v 0 c 0.038,0 0.078,0 0.116,-0.004 v 0 c 4.245,-0.031 8.358,-2.216 10.47,-5.566 v 0 c 2.214,-3.507 2.107,-8.323 -0.253,-11.453 v 0 c -1.677,-2.223 -4.362,-3.489 -6.879,-3.215 v 0 c -2.625,0.282 -4.911,2.405 -5.203,4.832 v 0 c -0.241,1.959 0.842,4.069 2.571,5.02 v 0 c 0.836,0.452 1.727,0.606 2.453,0.418 v 0 c 0.747,-0.192 1.353,-0.808 1.441,-1.457 v 0 c 0.065,-0.484 0.496,-0.842 0.995,-0.757 v 0 c 0.483,0.066 0.823,0.512 0.756,0.995 v 0 c -0.184,1.375 -1.29,2.553 -2.747,2.932 v 0 c -1.174,0.302 -2.505,0.101 -3.746,-0.58 v 0 c -2.379,-1.306 -3.811,-4.097 -3.481,-6.785 v 0 c 0.395,-3.259 3.306,-6.002 6.769,-6.377 v 0 c 3.133,-0.342 6.436,1.194 8.484,3.91 v 0 c 2.828,3.755 2.966,9.29 0.335,13.459 v 0 c -2.427,3.846 -7.117,6.358 -11.953,6.396 v 0 z"
               style="fill:url(#linearGradient870);stroke:none"
               id="path872" />
          </g>
        </g>
      </g>
    </g>
    <g
       id="g874"
       transform="matrix(0.35277776,0,0,-0.35277778,-0.94997866,152.82292)">
      <g
         id="g876"
         clip-path="url(#clipPath880)">
        <g
           id="g882">
          <g
             id="g884">
            <path
               d="m 321.415,391.026 c 0.004,-0.487 0.399,-0.883 0.886,-0.883 v 0 h 0.002 0.057 c 5.228,0 10.358,-2.104 14.082,-5.774 v 0 c 3.735,-3.689 5.908,-8.813 5.962,-14.062 v 0 c 0.006,-0.38 0.251,-0.716 0.612,-0.832 v 0 c 0.365,-0.113 0.76,0.009 0.983,0.317 v 0 c 2.769,3.742 7.846,5.845 12.866,5.404 v 0 c 4.641,-0.428 9.281,-2.934 12.725,-6.874 v 0 c 3.275,-3.751 5.639,-10.397 6.759,-15.365 v 0 c 0.095,-0.411 0.458,-0.691 0.863,-0.691 v 0 c 0.063,0 0.129,0.01 0.196,0.023 v 0 c 0.477,0.11 0.775,0.58 0.669,1.057 v 0 c -1.169,5.181 -3.662,12.139 -7.156,16.138 v 0 c -3.743,4.282 -8.807,7.005 -13.893,7.469 v 0 c -4.872,0.44 -9.73,-1.265 -12.989,-4.442 v 0 c -0.559,4.929 -2.813,9.616 -6.355,13.114 v 0 c -4.052,4 -9.635,6.289 -15.324,6.289 v 0 c -0.508,-0.01 -0.945,-0.377 -0.945,-0.888"
               style="fill:url(#linearGradient896);stroke:none"
               id="path898" />
          </g>
        </g>
      </g>
    </g>
    <g
       id="g900"
       transform="matrix(0.35277776,0,0,-0.35277778,-0.94997866,152.82292)">
      <g
         id="g902"
         clip-path="url(#clipPath906)">
        <g
           id="g908">
          <g
             id="g910">
            <path
               d="m 262.315,385.625 c -3.544,-3.498 -5.796,-8.185 -6.354,-13.114 v 0 c -3.26,3.177 -8.15,4.885 -12.986,4.442 v 0 c -5.09,-0.464 -10.154,-3.187 -13.894,-7.469 v 0 c -3.501,-4.006 -5.991,-10.964 -7.155,-16.138 v 0 c -0.108,-0.477 0.192,-0.951 0.668,-1.057 v 0 c 0.066,-0.013 0.132,-0.023 0.196,-0.023 v 0 c 0.404,0 0.769,0.28 0.861,0.691 v 0 c 1.118,4.964 3.478,11.608 6.761,15.365 v 0 c 3.446,3.94 8.083,6.446 12.723,6.874 v 0 c 5.06,0.445 10.095,-1.658 12.863,-5.404 v 0 c 0.225,-0.31 0.628,-0.43 0.983,-0.317 v 0 c 0.362,0.116 0.609,0.452 0.613,0.832 v 0 c 0.054,5.249 2.228,10.373 5.965,14.062 v 0 c 3.721,3.67 8.851,5.774 14.082,5.774 v 0 c 0.017,0 0.042,0.003 0.058,0 v 0 c 0.486,0 0.882,0.396 0.884,0.883 v 0 c 0,0.511 -0.451,0.882 -0.942,0.888 v 0 c -5.692,0 -11.274,-2.292 -15.326,-6.289"
               style="fill:url(#linearGradient922);stroke:none"
               id="path924" />
          </g>
        </g>
      </g>
    </g>
    <g
       id="g926"
       transform="matrix(0.35277776,0,0,-0.35277778,-0.94997866,152.82292)">
      <g
         id="g928"
         clip-path="url(#clipPath932)">
        <g
           id="g934">
          <g
             id="g936">
            <path
               d="m 331.265,399.575 c -2.223,-3.37 -5.495,-6.076 -9.215,-7.623 v 0 c -0.452,-0.189 -0.666,-0.707 -0.477,-1.156 v 0 c 0.188,-0.449 0.712,-0.672 1.154,-0.477 v 0 c 3.803,1.579 7.172,4.272 9.567,7.632 v 0 c 3.175,-1.727 5.778,-4.942 7.372,-9.139 v 0 c 1.124,-2.958 1.34,-6.073 1.57,-9.366 v 0 c 0.082,-1.183 0.163,-2.37 0.289,-3.554 v 0 c 0.047,-0.452 0.433,-0.791 0.879,-0.791 v 0 c 0.032,0 0.062,0.003 0.094,0.006 v 0 c 0.484,0.051 0.835,0.487 0.785,0.973 v 0 c -0.123,1.162 -0.204,2.324 -0.286,3.489 v 0 c -0.226,3.277 -0.458,6.669 -1.679,9.871 v 0 c -1.869,4.919 -5.046,8.631 -8.943,10.448 v 0 c -0.118,0.055 -0.244,0.082 -0.369,0.082 v 0 c -0.288,0 -0.57,-0.141 -0.741,-0.395"
               style="fill:url(#linearGradient948);stroke:none"
               id="path950" />
          </g>
        </g>
      </g>
    </g>
    <g
       id="g952"
       transform="matrix(0.35277776,0,0,-0.35277778,-0.94997866,152.82292)">
      <g
         id="g954"
         clip-path="url(#clipPath958)">
        <g
           id="g960">
          <g
             id="g962">
            <path
               d="m 267.626,399.888 c -3.895,-1.814 -7.072,-5.525 -8.945,-10.448 v 0 c -1.218,-3.2 -1.452,-6.587 -1.68,-9.865 v 0 c -0.08,-1.165 -0.162,-2.329 -0.286,-3.495 v 0 c -0.051,-0.486 0.301,-0.92 0.786,-0.973 v 0 c 0.03,-0.003 0.064,-0.006 0.095,-0.006 v 0 c 0.446,0 0.829,0.339 0.878,0.791 v 0 c 0.127,1.187 0.208,2.374 0.291,3.561 v 0 c 0.228,3.293 0.443,6.404 1.567,9.359 v 0 c 1.6,4.201 4.201,7.416 7.376,9.139 v 0 c 2.395,-3.36 5.763,-6.053 9.563,-7.632 v 0 c 0.448,-0.195 0.969,0.028 1.155,0.477 v 0 c 0.187,0.449 -0.026,0.967 -0.477,1.156 v 0 c -3.717,1.547 -6.989,4.253 -9.212,7.623 v 0 c -0.169,0.253 -0.449,0.396 -0.738,0.396 v 0 c -0.125,0 -0.253,-0.027 -0.373,-0.083"
               style="fill:url(#linearGradient974);stroke:none"
               id="path976" />
          </g>
        </g>
      </g>
    </g>
    <g
       id="g978"
       transform="matrix(0.35277776,0,0,-0.35277778,-0.94997866,152.82292)">
      <g
         id="g980"
         clip-path="url(#clipPath984)">
        <g
           id="g986">
          <g
             id="g988">
            <path
               d="m 309.105,361.123 c -4.054,-2.81 -7.294,-6.655 -9.372,-11.123 v 0 c -0.206,-0.443 -0.014,-0.97 0.43,-1.174 v 0 c 0.119,-0.057 0.247,-0.085 0.372,-0.085 v 0 c 0.333,0 0.652,0.192 0.802,0.511 v 0 c 1.947,4.185 4.98,7.79 8.772,10.421 v 0 c 0.403,0.277 0.503,0.829 0.224,1.228 v 0 c -0.173,0.249 -0.45,0.382 -0.729,0.382 v 0 c -0.175,0 -0.349,-0.052 -0.499,-0.16"
               style="fill:url(#linearGradient1000);stroke:none"
               id="path1002" />
          </g>
        </g>
      </g>
    </g>
    <g
       id="g1004"
       transform="matrix(0.35277776,0,0,-0.35277778,-0.94997866,152.82292)">
      <g
         id="g1006"
         clip-path="url(#clipPath1010)">
        <g
           id="g1012">
          <g
             id="g1014">
            <path
               d="m 289.666,360.901 c -0.278,-0.399 -0.177,-0.951 0.223,-1.228 v 0 c 3.795,-2.631 6.827,-6.232 8.773,-10.421 v 0 c 0.152,-0.319 0.47,-0.511 0.803,-0.511 v 0 c 0.125,0 0.252,0.028 0.372,0.085 v 0 c 0.444,0.204 0.635,0.731 0.43,1.174 v 0 c -2.08,4.47 -5.32,8.317 -9.37,11.123 v 0 c -0.153,0.107 -0.329,0.159 -0.502,0.159 v 0 c -0.28,0 -0.556,-0.133 -0.729,-0.381"
               style="fill:url(#linearGradient1026);stroke:none"
               id="path1028" />
          </g>
        </g>
      </g>
    </g>
  </g>
</svg>
