<?xml version="1.0" encoding="UTF-8"?>
<svg viewBox="0 0 733.23029 555.42145" xmlns="http://www.w3.org/2000/svg">
 <g transform="translate(-6.0991 -162.05)">
  <path d="m17.675 169.92h719.54v546.89h-719.54z" fill="#c88c00" fill-rule="evenodd" opacity=".94937" stroke="#c35b16" stroke-width=".85167"/>
  <path d="m337.88 370.67h64.026v16.55h-64.026z" fill="#fdca01" fill-rule="evenodd" opacity=".94937" stroke="#c35b16" stroke-width="1.007"/>
  <path d="m440.22 470.68c-358.59-238.2-211.07 77.412-370.07-57.751-99.393-84.496-19.93-229.51 90.922-214.98 45.902 6.0184 19.521 105.94 19.521 105.94l275.86 151.46s37.273 50.865-16.232 15.324z" fill="#fdca01" fill-rule="evenodd" stroke="#000" stroke-width="1.4386"/>
  <path d="m198.27 717.36-192.17 0.10358v-555.42h733.23v265.46l-1.3129 287.76c-4.8311-4.2935-17.484-39.858-18.987-42.245l-2.732-4.3389-6.5995-4.5923-6.5995-4.5923-3.6818-5.4588-3.6818-5.459-5.5975-1.5948c-3.0786-0.87709-6.9672-2.245-8.6413-3.0396l-3.0439-1.4448-15.679-0.83058-7.8168 1.1063c-4.2992 0.60859-10.055 1.8821-12.791 2.8302s-9.2357 2.1712-14.444 2.7183l-9.4698 0.99474-0.41286 3.2744-0.41284 3.2744-5.6749 3.1975c-3.1212 1.7585-10.849 5.4484-17.174 8.1996l-11.499 5.0025v1.7435c0 0.95879 3.1979 5.6291 7.1064 10.378l7.1064 8.6348 2.6127-1.5813c1.437-0.86975 3.8702-1.5813 5.4073-1.5813h2.7946v2.3487c0 1.2917-0.91579 3.9292-2.0351 5.8612l-2.0351 3.5125-6.42 3.134c-3.531 1.7237-8.1966 3.7333-10.368 4.4656l-3.9479 1.3316-0.62871 2.1405-0.62871 2.1403 5.9294-1.098c3.2612-0.604 12.93-1.775 21.487-2.6024s21.95-1.8302 29.762-2.2283l14.205-0.72395-87.787 9.2564h-116.87l-26.023-44.719c-19.092-57.086-35.661-46.507-43.492-64.13 0.11185-4.5869 9.0111 37.572-5.1836-27.226 0-0.8774-2.7661-6.5913-6.1469-12.698l-6.1469-11.102 0.76176-4.7603 0.76175-4.7603-2.0554-1.9291-2.0554-1.9291v-4.3612l-3.1719-3.3692-3.1719-3.3692-1.0429-7.6495c-0.57361-4.2072-1.4291-10.403-1.9012-13.769l-0.85821-6.1196h-4.0585l0.4412 4.5897c0.24267 2.5243 1.3637 7.6877 2.4912 11.474l2.05 6.8846-0.83475 8.2508-0.83474 8.2508 2.3024 2.8771 2.3024 2.8771-1.2532 1.2831c-0.68926 0.70573-7.9733 3.7502-16.187 6.7656l-14.934 5.4825-16.181 10.239c-8.8998 5.6316-20.519 13.549-25.821 17.595l-9.6396 7.3556-4.9032 7.5539-4.9032 7.5537v9.3538l1.1182 0.78163 1.1182 0.78147 6.6594-3.8127 6.6594-3.8128 4.736-5.0652c2.6048-2.7859 8.3887-7.4723 12.853-10.414s14.509-8.2694 22.322-11.839 16.494-7.5686 19.292-8.887l5.0869-2.3975 0.79335 0.89729 0.79336 0.89713-5.2038 2.9059c-2.8621 1.5983-12.205 7.0423-20.761 12.098s-22.133 13.17-30.171 18.033l-14.613 8.8407-4.7691 5.0866-4.7691 5.0866 0.44275 3.3763 0.44277 3.3763 2.126 1.5062 2.126 1.506 5.991-4.3261c3.295-2.3793 7.4036-5.7405 9.1302-7.4694s7.2055-6.0393 12.175-9.5787 14.143-9.2192 20.384-12.622 12.329-6.1615 13.528-6.1312l2.1802 0.05492-3.3821 3.093c-1.8601 1.7012-7.0347 5.8055-11.499 9.1208s-8.6904 6.0293-9.3914 6.0313-6.1799 3.5679-12.175 7.9243-14.707 10.724-19.359 14.152l-8.4579 6.231 0.34097 4.5772 0.34098 4.5772 2.2738 0.48681 2.2738 0.48682 5.8431-4.2479c3.2137-2.3363 7.8428-6.1641 10.287-8.5062l4.4437-4.2583h6.8442l6.8571-6.5021c3.7714-3.5761 11.798-11.245 17.838-17.041s12.503-11.603 14.363-12.904 4.5996-3.5322 6.0877-4.9592 5.0709-3.5371 7.9617-4.6894l5.2561-2.095 1.2719-3.1568 1.2718-3.1568 4.5177-2.7514 4.5177-2.7515 1.6391 1.1456 1.639 1.1456 5.1165 11.304c5.6241 43.266 16.863 6.6634 47.827 81.344l21.329 39.796-246.35 0.20195zm74.107-42.802c0.66707 0 2.9691-1.533 5.1155-3.4063s4.696-4.4552 5.6656-5.7371 2.6794-4.6428 3.7995-7.4684 1.7424-5.4702 1.3829-5.8768-1.8638-0.30491-3.3427 0.22581l-2.689 0.96522-6.3386 8.3906-6.3386 8.3906 0.76625 2.2581c0.42145 1.2421 1.312 2.2583 1.9791 2.2583zm-51.631-75.014c1.6133 0.02678 3.8926-0.36778 5.0653-0.87663l2.1321-0.92528-0.74848-1.3696c-0.41167-0.75332-1.5094-1.3696-2.4393-1.3696s-2.8725 1.0108-4.3168 2.2462l-2.626 2.2462 2.9332 0.04865zm-72.604-16.78h1.3528v-3.2405l-1.3528 0.94563c-0.74405 0.52001-1.3528 1.2492-1.3528 1.6202s0.60877 0.67469 1.3528 0.67469zm5.8223-4.5897h1.7639l4.5885-5.3539 4.5885-5.3538-2.7755-4.208-2.7755-4.208-1.9829-0.44213-1.9829-0.44212-1.594 3.9564-1.594 3.9564v12.095h1.7639zm143.73-6.1739c0.70685-0.02968 2.8071-1.0911 4.6672-2.3586l3.3821-2.3044-3.3821 1.0007c-1.8601 0.5504-3.9604 1.6118-4.6672 2.3587l-1.2852 1.358 1.2852-0.05431zm-103.14-4.5588 2.964-0.02343-2.0292-1.483c-1.1161-0.81568-2.8261-1.4936-3.8001-1.5065l-1.7709-0.02342 0.83608 1.5299 0.83609 1.5299 2.964-0.02343zm-27.475-6.0962h1.3528v-6.1196h-2.7056v6.1196h1.3528zm-9.6377-11.03 2.1972-0.47066 0.38592-4.5766c0.21226-2.5171 1.0354-6.0396 1.8291-7.8276l1.4432-3.251-1.4909-3.1505c-0.82-1.7328-1.4909-4.2432-1.4909-5.5787v-2.4282l3.2302-1.6644 3.2302-1.6644 0.63925-9.3946c0.35159-5.167 0.46087-9.6351 0.24285-9.9292s-1.8842 2.804-3.7027 6.8846-3.721 9.5894-4.2279 12.242-2.1038 7.4452-3.5487 10.65l-2.6272 5.8276v4.906c0 2.6983 0.38098 6.0288 0.84663 7.4011l0.84663 2.4951 2.1972-0.47066zm13.887-2.5144c0.53462-1.6344 1.653-3.4476 2.4854-4.0294l1.5133-1.0577-1.5842-2.1586c-0.87129-1.1872-2.4228-2.1586-3.4477-2.1586h-1.8636v5.0997c0 2.8048 0.43306 5.5894 0.96238 6.188l0.96237 1.0884 0.97206-2.9717zm57.434-1.7549c0.44353 0 4.2483-1.1054 8.4552-2.4565l7.6487-2.4565 2.0292-2.2742 2.0292-2.2742-2.0292 0.59141c-1.1161 0.32529-5.834 1.8785-10.484 3.4517l-8.4552 2.8602v1.2791c0 0.7035 0.36288 1.2791 0.8064 1.2791zm49.373-4.5897h1.2951l1.3193-3.9244c0.72564-2.1584 1.3193-4.5503 1.3193-5.3154v-1.391l-4.1806-2.4448-4.1806-2.4448-1.9071 0.82763-1.9071 0.82763v6.0094l2.6364 0.9463 2.6364 0.94631 0.83677 2.9815 0.83678 2.9816h1.2951zm-11.398-29.068h3.1566v-1.027c0-0.56483-1.0075-2.286-2.2389-3.8248l-2.2389-2.7978h-3.6391v2.8048c0 1.5427 0.40584 3.2638 0.90188 3.8248s2.3223 1.0199 4.0585 1.0199zm261.12-3.0598c1.0058 0 4.8462-1.7844 8.5343-3.9652l6.7056-3.9652 5.5386-0.84011 5.5386-0.84013 2.2259-3.9916c1.2242-2.1954 7.2749-9.4992 13.446-16.231l11.22-12.239-0.01143-1.7421-0.01145-1.7421-4.8925-1.038-4.8925-1.038-4.5117-3.3395-4.5117-3.3395-1.3894-3.4423-1.3894-3.4423h-2.9017l-2.2786-5.7371-2.2786-5.7371-0.01985-4.538-0.01984-4.538-4.3619-0.41243-4.3619-0.41243-2.7236 3.3061-2.7236 3.3061-0.79665 4.8024-0.79665 4.8024 5.5147 9.3893 5.5147 9.3893v5.6563l-1.6234 1.8359c-0.89287 1.0097-2.4749 1.8359-3.5157 1.8359h-1.8923l-3.9524 4.7848-3.9524 4.7848-5.0456-0.99022c-2.7751-0.54459-9.0026-1.4026-13.839-1.9065l-8.7934-0.91633-2.9098-2.0492-2.9098-2.0492-4.1926-7.0253-4.1926-7.0253v-10.652l2.1598-0.93726 2.1598-0.93728 7.5032 3.517 7.5032 3.517 2.084-1.4866 2.084-1.4866 1.443-4.5627 1.443-4.5627 9.0902-13.089c4.9996-7.1988 9.6732-14.823 10.386-16.942l1.2953-3.8529-1.5246-1.7242c-0.83852-0.94828-2.1429-1.7242-2.8986-1.7242s-9.243-2.2588-12.75 1.6472l-15.507 4.1251-8.6783-2.8006-7.8683 1.6071c-1.8276 2.3839-6.9005 13.484-11.273 19.666l-7.9504 11.241-1.6347 5.6015-1.6347 5.6015 2.8145 8.0751c1.548 4.4413 2.8145 9.4265 2.8145 11.078v3.0032h-2.7056v3.2159l4.6914 2.2168 4.6914 2.2168h12.397l4.3295 2.5216c2.3812 1.3869 6.3615 4.2685 8.845 6.4037l4.5155 3.8821 2.5421-1.7954 2.5421-1.7954 3.2903 1.4147 3.2903 1.4147 2.1658 3.4968 2.1658 3.4968v3.9943c0 2.1969 0.40584 4.4533 0.90188 5.0142s1.7248 1.0199 2.7305 1.0199zm-358.07-13.004c0.74405-0.52004 1.3528-1.634 1.3528-2.4754v-1.5299l-1.3528 0.94553c-0.74405 0.52004-1.3528 1.634-1.3528 2.4754v1.5299l1.3528-0.94553zm194.92-0.76495c0.84108 0 3.1609-1.5527 5.1552-3.4504l3.6259-3.4504-1.2244-4.828-1.2244-4.828-4.5967-0.97524-4.5967-0.97521-1.409 0.98481-1.409 0.98479 0.92797 4.8265c0.51038 2.6546 1.4441 6.3756 2.0749 8.2688l1.147 3.4423h1.5292zm131.26-3.0598h1.203v-4.2623l-2.1399-0.92864c-1.1769-0.51076-3.1554-0.90573-4.3967-0.87773l-2.2568 0.0509 3.1937 3.0089c1.7566 1.6549 3.7351 3.0089 4.3967 3.0089zm-228.57-4.5897h2.7506l3.4397-3.0598 3.4397-3.0598h15.412l1.8225-3.8511 1.8225-3.8511 4.4774-3.8621 4.4774-3.8621 2.848 1.7237 2.848 1.7237 2.9178-0.84529 2.9178-0.8453 3.3821-7.3107 3.3821-7.3107 2.4134-0.51071c1.3274-0.28089 5.5888-2.8971 9.4698-5.8139l7.0564-5.3032 3.0438 0.62351 3.0438 0.62352v-5.2792l-5.0814-3.9823c-2.7948-2.1903-6.9538-4.7205-9.2422-5.6227l-4.1608-1.6403-3.5718 1.5358-3.5718 1.5357-0.90073 4.2613c-0.49541 2.3437-1.4557 5.0614-2.134 6.0393l-1.2333 1.778-6.6301 1.7987-6.6301 1.7987-1.7052 2.3236c-0.93787 1.278-2.3535 3.7992-3.1458 5.6027l-1.4406 3.2791-9.3525 0.91076-9.3525 0.91075-3.8328 5.192-3.8328 5.192-2.3372 0.01689-2.3372 0.01687-0.44397 5.3546-0.44397 5.3546-2.056 2.5809-2.056 2.5809 0.88877 1.6263 0.88877 1.6263h2.7506zm-63.562-9.1794h1.1274v-6.1196h-4.0585v2.0399c0 1.1219 0.40585 2.4988 0.90189 3.0598s1.4092 1.0199 2.0292 1.0199zm251.74-10.817 2.3674 0.10729v-2.7868l-6.4259-3.3059c-3.5342-1.8182-7.6434-4.0738-9.1316-5.0123s-6.3583-3.7319-10.823-6.2075-13.596-6.8712-20.292-9.7682-14.228-5.9615-16.736-6.8102-9.0527-3.8582-14.543-6.6877l-9.9826-5.1447-2.7533-5.2773-2.7533-5.2773-2.9959-0.90831c-1.6478-0.49958-5.2088-0.91773-7.9134-0.92922l-4.9175-0.02088-2.1976-3.7929-2.1976-3.7929-3.8694-2.2629-3.8694-2.2629-4.9112 0.90129-4.9112 0.9013v-4.949l-4.7318-2.2359-4.7319-2.2359-1.5479-3.8418-1.5479-3.8418-2.6561 1.6075-2.6561 1.6076-4.9306-0.94346c-2.7118-0.51891-7.8223-2.4208-11.357-4.2263l-6.4259-3.2828 0.02338-2.4158 0.02336-2.4158 3.1396-3.3644 3.1396-3.3644 3.1755-7.5639 3.1755-7.564 5.2655-0.7987 5.2655-0.7987 2.369-2.4245c1.3029-1.3335 3.2803-2.4245 4.3941-2.4245h2.0251l3.267 3.9327 3.267 3.9327 2.9782-0.64384c1.638-0.3541 5.7746-0.16388 9.1924 0.42271l6.2142 1.0665 0.67421-1.2337 0.67419-1.2337-5.0667-6.3423-5.0667-6.3423-3.0962-1.3313-3.0962-1.3312 4e-5 -1.9502 4e-5 -1.9502 4.6601-4.205 4.6601-4.205 1.7785-4.2095 1.7785-4.2095 2.9269-0.47343 2.9269-0.47341 1.3868-4.4988 1.3868-4.4987h7.4138l4.4712-3.4423 4.4711-3.4423 0.00926-1.6064c0.00508-0.88352-0.72129-2.4325-1.6142-3.4423l-1.6234-1.8359h-5.6396l-2.4458 4.6824-2.4458 4.6824-5.6246 4.5763c-3.0935 2.517-10.495 9.9216-16.447 16.455s-11.63 12.423-12.617 13.088-5.8516 1.7782-10.81 2.4736l-9.015 1.2644-2.7183 3.8567c-1.4951 2.1212-3.7273 7.1587-4.9605 11.194s-2.6515 9.5758-3.1516 12.311l-0.90941 4.9736-3.302 0.93725-3.302 0.93723-6.2071-1.7675c-3.4139-0.97214-11.173-4.4231-17.243-7.6689s-15.287-8.2764-20.483-11.179-16.753-9.9355-25.682-15.628-17.85-11.648-19.825-13.235-4.0032-2.8851-4.5072-2.8851-3.6215-2.5068-6.9278-5.5708-6.2726-5.2756-6.5916-4.9147-0.92833 3.384-1.3539 6.7182l-0.77382 6.0622 9.167 6.2566c5.0419 3.4412 12.515 7.8218 16.608 9.7346s15.659 8.2832 25.704 14.156 18.896 11.267 19.67 11.987 6.2526 3.6571 12.175 6.5276 14.726 7.2916 19.562 9.8248 11.228 5.4615 14.205 6.5074 10.132 4.585 15.903 7.8648 14.549 7.6905 19.509 9.8018 9.6747 4.3951 10.477 5.0751 4.5033 2.4966 8.2236 4.0367 11.026 5.0283 16.234 7.7513 14.949 7.487 21.645 10.587 19.785 9.6702 29.086 14.601 20.259 10.463 24.351 12.292 10.484 4.5773 14.205 6.1065 7.8295 2.8287 9.1316 2.8877zm-268.71-1.4226h2.0292l-0.83608-1.5299c-0.45986-0.84145-1.7492-1.5299-2.8653-1.5299h-2.0292l0.83609 1.5299c0.45985 0.84144 1.7492 1.5299 2.8653 1.5299zm33.911-9.2044c0.88163 0.01373 3.1304-0.63176 4.9972-1.4344l3.3943-1.4594 1.7669-3.7663c0.9718-2.0714 4.5956-6.574 8.053-10.006l6.2861-6.2394 3.0054 2.7521 3.0054 2.7521 3.9881-4.5101 3.9881-4.5102-4.2292-4.3684-4.2292-4.3684 0.96333-1.9148c0.52985-1.0531 1.8324-3.0623 2.8946-4.4648l1.9313-2.5501-1.5519-3.2794-1.5519-3.2794-2.2762 0.49041-2.2762 0.49039-0.43646 3.4626-0.43646 3.4626-9.0333 10.052c-4.9683 5.5286-12.141 13.468-15.94 17.644l-6.9063 7.5916-12.531-3.9845c-6.8922-2.1915-12.763-3.7227-13.046-3.4027s0.85436 1.325 2.5274 2.2333 8.2164 4.1109 14.541 7.1169 12.22 5.4766 13.102 5.4903zm-77.023-10.699 3.0438 0.01494-0.02615-1.1474c-0.01438-0.63108-4.8856-4.0734-10.825-7.6495s-11.435-6.5021-12.212-6.5021h-1.4137l2.4306 3.9414 2.4306 3.9414 6.7641 3.6932 6.7641 3.6932 3.0439 0.01495zm430.02-7.7315c0.82973 0.05334 2.9604-1.1902 4.7349-2.7634l3.2263-2.8604 4.1982-1.0366 4.1982-1.0366 3.6424-6.2915 3.6424-6.2915-0.66557-1.9615c-0.36608-1.0788-2.2396-3.1278-4.1633-4.5533l-3.4977-2.5917-9.0886-0.65332-9.0887-0.65331-4.5441 2.7734-4.5441 2.7734-0.31192 8.7819-0.31192 8.7819 2.1782 2.2293c1.198 1.2261 3.6876 2.9104 5.5325 3.7428s4.0331 1.5571 4.8628 1.6104zm-293.49-10.122 5.1829-0.8877 3.6955-3.8854 3.6955-3.8854-1.4937-2.0354-1.4937-2.0354h-4.5738l-3.3646 4.2072c-1.8505 2.314-4.1446 5.3778-5.0978 6.8085l-1.7332 2.6013 5.183-0.88771zm-116.21-8.1396h1.3393l1.4404-4.2072c0.79221-2.314 2.1368-8.2204 2.988-13.125s1.2494-9.2554 0.88509-9.6674-1.8927 2.9694-3.3964 7.5143-3.1528 10.789-3.6647 13.875l-0.93082 5.6112h1.3392zm-78.149-17.67c1.8601-0.29959 6.0156-0.93794 9.2344-1.4186l5.8523-0.87389 8.3523-4.7334c4.5938-2.6034 12.034-7.6855 16.533-11.294l8.181-6.5602 8.0529-9.7673 8.053-9.7673 3.7594-7.8763 3.7593-7.8763-11.237 12.91-11.237 12.91h-4.66v-4.3813l3.7934-3.0547 3.7934-3.0547 2.6295-5.5218 2.6295-5.5218-2.0149-1.4083-2.0149-1.4083-1.2965 1.4662c-0.71308 0.80641-2.3923 1.4662-3.7316 1.4662h-2.4351v-1.6305c0-0.89677 0.59537-2.8886 1.323-4.4262l1.323-2.7957-2.5736-3.7c-1.4155-2.035-4.9992-5.601-7.9638-7.9244l-5.3903-4.2244-4.1146 2.4063-4.1146 2.4063h-7.7342l-2.4163-1.9981-2.4163-1.9981 0.46668-3.739 0.46669-3.739 3.0319-0.48712 3.032-0.48712 1.9847-3.2045 1.9847-3.2045-0.6448-1.1798-0.64478-1.1798-4.5246 0.83034-4.5246 0.83034-2.8425-1.7204-2.8425-1.7204 0.4089-14.437 0.40892-14.437 1.3812-1.9848c0.75969-1.0916 1.7314-4.0826 2.1593-6.6465l0.77805-4.6618-1.053-1.9269-1.053-1.9269-5.5557 0.75732c-3.0556 0.41651-6.8686 1.5519-8.4733 2.5231l-2.9176 1.7658-1.4646-1.6563-1.4646-1.6563 2.3808-5.646 2.3808-5.646-2.3331 2.1884c-1.2832 1.2036-5.6156 7.9421-9.6276 14.974s-9.7831 18.309-12.825 25.06-6.0026 14.422-6.5798 17.047-2.4569 8.9035-4.177 13.952l-3.1274 9.1794-0.03745 17.622-0.03745 17.622 4.7349 10.664 4.7349 10.664 6.6819 5.3398 6.6819 5.3398 8.8756 2.5607 8.8756 2.5607 3.3821-0.54469zm424.36-3.9574c0.13758 0.11459 1.8226-0.46777 3.7445-1.2941l3.4944-1.5024 1.2341-3.6709 1.2341-3.6709-3.1512-11.273-3.1512-11.273-3.5518-0.48773-3.5518-0.48771-3.3488 8.5633-3.3488 8.5633v10.037l1.691 2.479 1.691 2.479 3.3821 0.66484c1.8601 0.36564 3.4946 0.75858 3.6322 0.87317zm74.014-7.501 5.2706 0.05988-3.5796-3.7517c-1.9688-2.0634-3.5796-4.3943-3.5796-5.1798s0.9094-3.4 2.0209-5.8102 2.0246-5.8164 2.0292-7.5694 0.46491-3.7085 1.023-4.3455 1.0146-2.6322 1.0146-4.4337v-3.2755l2.7056-0.49333c1.4881-0.27133 5.1407-1.8707 8.1169-3.5541s6.781-4.3384 8.4551-5.9l3.0438-2.8392-3.6224-6.2569-3.6223-6.2569h-7.305l-1.6119-2.1965-1.612-2.1965-3.8856-0.96513-3.8856-0.96516-3.0272 1.8322-3.0272 1.8322-4.4579-2.715-4.4579-2.715-7.7961 7.2583c-4.2879 3.9921-10.239 8.6389-13.225 10.326l-5.4287 3.068-5.1035 5.5366-5.1035 5.5366-5.3781-6.6536-5.3781-6.6536-2.032 1.9072c-1.1176 1.049-2.0337 2.6834-2.0358 3.6322s1.1956 4.4789 2.6614 7.8446l2.6652 6.1196 0.77104 7.0222 0.77104 7.0222 4.6442 5.0905 4.6442 5.0906 8.2783-2.8346 8.2783-2.8346 4.2755 1.9636c2.3516 1.08 6.4062 2.5003 9.0104 3.1562s6.8656 2.2826 9.4698 3.6148l4.7349 2.4222 5.2706 0.05988zm-223.58-3.0464 2.2018 0.04653 1.553-2.1162 1.553-2.1162-2.1744-0.94363c-1.1959-0.51899-3.9509-0.94361-6.1222-0.94361h-3.9478v1.4539c0 0.79963 1.0654 2.1556 2.3674 3.0133s3.3582 1.5803 4.5692 1.6059zm-21.141-9.2028c0.74405 0.0127 2.196-0.58082 3.2266-1.3189l1.8738-1.342-2.7995-1.6943c-1.5397-0.93189-4.057-1.6944-5.5941-1.6944h-2.7946v1.4539c0 0.79963 1.0654 2.1556 2.3674 3.0133s2.9762 1.5698 3.7203 1.5825zm373.86-0.10752c0.26667 0.09761 0.12036-1.4649-0.32514-3.4722l-0.80999-3.6497 2.0162-1.8923 2.0162-1.8923v-2.5665c0-1.4116-0.55723-3.2205-1.2383-4.0199s-1.442-3.1206-1.691-5.1583l-0.45277-3.7049-1.8699-0.69722-1.8699-0.69722 0.93811 5.1671c0.51597 2.8419 0.91707 7.1797 0.89133 9.6395l-0.04681 4.4724-1.3889 1.5707c-0.76388 0.86387-1.3889 2.4152-1.3889 3.4474v1.8767l2.3674 0.69965c1.3021 0.38482 2.5856 0.77953 2.8523 0.87714zm-12.077-7.472c0.51073 0 2.0976-0.96669 3.5264-2.1482l2.5978-2.1482-3.3435-3.0618-3.3435-3.0618-2.478 1.4997-2.4779 1.4997-0.72556-3.1377-0.72556-3.1377-2.5735 1.5576-2.5735 1.5576 1.4176 2.9956 1.4176 2.9956h4.9848l1.6841 2.2948c0.92626 1.2622 2.102 2.2948 2.6127 2.2948zm-13.435-12.239c0.74405 0 1.3528-0.64782 1.3528-1.4396s-0.60877-1.8651-1.3528-2.3851l-1.3528-0.94552v4.7703h1.3528zm-16.234-7.6495c0.74405 0 1.3528-0.68845 1.3528-1.5299s-0.60877-1.5299-1.3528-1.5299-1.3528 0.68846-1.3528 1.5299 0.60877 1.5299 1.3528 1.5299zm31.712-6.1196h2.1091v-1.5299c0-0.84144-0.57283-1.5299-1.273-1.5299s-1.6492 0.68846-2.1091 1.5299l-0.83609 1.5299h2.1091zm-26.22-1.5299c0.70014 0 1.273-0.64782 1.273-1.4396s-0.64927-1.8934-1.4428-2.448l-1.4428-1.0084-0.72188 0.81636-0.72187 0.81637 0.89172 1.6317c0.49045 0.89742 1.4646 1.6317 2.1647 1.6317zm19.144 0h1.3217l0.68306-2.9539 0.68306-2.9539 2.1179 0.91909 2.1179 0.91907-1.0352-1.8942-1.0352-1.8942-1.8566 0.80571-1.8566 0.80571-1.2588-2.5438-1.2588-2.5438-3.5882 1.8489-3.5882 1.8489 0.88953 1.6277 0.88954 1.6277 2.0176-0.87556 2.0176-0.87557 0.70901 3.0661 0.709 3.0661h1.3217zm-46.965-9.1794c0.27967 0 2.0701-0.67141 3.9786-1.492l3.4701-1.492v-3.1938l-3.7203 1.0056c-2.0461 0.55309-4.1868 1.3022-4.7569 1.6648l-1.0367 0.65914 0.77832 1.4242c0.42807 0.7833 1.0071 1.4242 1.2868 1.4242zm39.16-7.6495h3.3022l0.97149-1.7777 0.9715-1.7777-3.0708-2.812c-1.6889-1.5466-3.6121-2.812-4.2737-2.812h-1.203v9.1794h3.3022zm-311-4.9714 6.1568-0.10526-0.4073-3.9637-0.40728-3.9637-3.8021-0.49303-3.8021-0.49301-1.9474 1.8278-1.9474 1.8278v5.4685l6.1568-0.10525zm299.92-6.7608c2.4182-0.52055 4.6527-1.1945 4.9657-1.4977s-0.87422-2.2886-2.6382-4.412l-3.2072-3.8607-1.7106 3.4843c-0.94082 1.9164-1.7322 4.3276-1.7585 5.3584l-0.04795 1.8741 4.3967-0.94646zm-17.076-6.787 8.2895 0.16041 1.65-2.2484 1.65-2.2484-7.9102-3.9721c-4.3507-2.1847-9.6196-4.365-11.709-4.8451l-3.7986-0.87302-0.73598 3.1828-0.73598 3.1828-2.906 0.46845-2.9059 0.46844v2.7837l5.4113 1.89 5.4113 1.89 8.2895 0.16043zm-484.18-30.055c0.30008-2.7347 0.30008-7.2097 0-9.9444l-0.54564-4.9722v19.889l0.54564-4.9722zm-1.394-20.683c0.343-1.4886 0.32045-3.5539-0.05012-4.5897l-0.67377-1.8833 0.05013 4.5897 0.05012 4.5897 0.62364-2.7064zm-5.326-18.594c0.30867-0.34908-0.46066-3.07-1.7096-6.0465l-2.2709-5.4119-4.7794-3.189c-2.6286-1.754-5.0006-2.9388-5.2711-2.6329s0.26286 2.4002 1.1851 4.6542l1.6768 4.0981 2.1535 0.78894c1.1844 0.43393 3.5712 2.4955 5.3039 4.5814s3.403 3.5068 3.7116 3.1578zm-47.019-17.712c0.74405 0 1.3528-0.68845 1.3528-1.5299s-0.60877-1.5299-1.3528-1.5299-1.3528 0.68846-1.3528 1.5299 0.60877 1.5299 1.3528 1.5299z"/>
  <path transform="matrix(.093576 -.19909 .2236 .19683 92.888 190.91)" d="m-52.737 200.46-28.291-97.089-93.159 56.008 83.595-56.908-82.054-71.292 79.955 61.918 42.447-100.07-34.18 95.175 108.29 9.4463-101.08-3.0962 24.479 105.91z" fill="#ff0" fill-rule="evenodd" opacity=".94937" stroke="#c35b16" stroke-width=".7"/>
  <path transform="matrix(.14541 -.27248 .27192 .1325 394.14 406.44)" d="m-52.737 200.46-28.291-97.089-93.159 56.008 83.595-56.908-82.054-71.292 79.955 61.918 42.447-100.07-34.18 95.175 108.29 9.4463-101.08-3.0962 24.479 105.91z" fill="#ff0" fill-rule="evenodd" opacity=".94937" stroke="#c35b16" stroke-width=".7"/>
  <path d="m586.62 457.01c-54.138 12.617-42.255-74.06 7.0938-47.677 31.947 17.08 24.046 40.419-7.0938 47.677z" fill-rule="evenodd"/>
  <path d="m507.09 421.95c-51.407 18.557-30.242-42.803-5.3696-54.07 6.4426-2.9185 60.604 34.131 5.3696 54.07z" fill="#010103" fill-rule="evenodd"/>
  <path d="m534.91 387.27c12.296 6.4314 17.443 9.7696 25.506 16.202 0 0-14.853 10.419-9.3605 7.4741 9.134-4.8968-6.1406-17.298-14.694-17.131-1.687 0.03228-1.4515-6.5447-1.4515-6.5447z" fill="#f0a513" fill-rule="evenodd" stroke="#010000" stroke-width="1.007"/>
  <path transform="matrix(.0144 -.27609 .23601 .066073 32.494 357.83)" d="m-52.737 200.46-28.291-97.089-93.159 56.008 83.595-56.908-82.054-71.292 79.955 61.918 42.447-100.07-34.18 95.175 108.29 9.4463-101.08-3.0962 24.479 105.91z" fill="#ff0" fill-rule="evenodd" opacity=".94937" stroke="#c35b16" stroke-width=".7"/>
  <path d="m607.48 417.77c14.547 30.342-22.374 46.175-22.374 46.175 43.053-24.415 7.9647-76.23 22.374-46.175z" fill="#f0a513" fill-rule="evenodd" stroke="#000" stroke-width="1.194"/>
  <path transform="matrix(.092037 -.19846 .17212 .096505 581.17 384.27)" d="m-52.737 200.46-28.291-97.089-93.159 56.008 83.595-56.908-82.054-71.292 79.955 61.918 42.447-100.07-34.18 95.175 108.29 9.4463-101.08-3.0962 24.479 105.91z" fill="#ff0" fill-rule="evenodd" opacity=".94937" stroke="#c35b16" stroke-width=".7"/>
 </g>
</svg>
