<?xml version="1.0" encoding="UTF-8" standalone="no"?>
<svg
   id="Layer_1"
   fill="#ddae59"
   data-name="Layer 1"
   viewBox="0 0 122.88 122.88"
   version="1.1"
   xml:space="preserve"
   width="122.88"
   height="122.88"
   xmlns="http://www.w3.org/2000/svg"
   xmlns:svg="http://www.w3.org/2000/svg"><defs
     id="defs33"><style
       id="style31">.cls-1{fill:#ddae59;}.cls-1,.cls-2{fill-rule:evenodd;}.cls-2{fill:#800000;}</style></defs><title
     id="title35">facebook-square-color</title><path
     class="cls-1"
     d="m 25.2,0 h 72.48 a 25.27,25.27 0 0 1 25.2,25.2 v 72.48 a 25.27,25.27 0 0 1 -25.2,25.2 H 25.2 A 25.27,25.27 0 0 1 0,97.68 V 25.2 A 25.27,25.27 0 0 1 25.2,0 Z"
     id="path37" /><g
     style="fill:#800000;fill-opacity:1"
     id="g351"
     transform="matrix(4.2,0,0,4.2,11.355228,9.2058529)"><path
       d="M 7.75,2.5 C 7.75,2.08579 7.41421,1.75 7,1.75 6.58579,1.75 6.25,2.08579 6.25,2.5 V 4.07926 C 4.81067,4.19451 3.86577,4.47737 3.17157,5.17157 2.47737,5.86577 2.19451,6.81067 2.07926,8.25 H 21.9207 C 21.8055,6.81067 21.5226,5.86577 20.8284,5.17157 20.1342,4.47737 19.1893,4.19451 17.75,4.07926 V 2.5 C 17.75,2.08579 17.4142,1.75 17,1.75 16.5858,1.75 16.25,2.08579 16.25,2.5 V 4.0129 C 15.5847,4 14.839,4 14,4 H 10 C 9.16097,4 8.41527,4 7.75,4.0129 Z"
       fill="#1c274c"
       id="path339"
       style="fill:#800000;fill-opacity:1" /><path
       fill-rule="evenodd"
       clip-rule="evenodd"
       d="m 22,12 v 2 c 0,3.7712 0,5.6569 -1.1716,6.8284 C 19.6569,22 17.7712,22 14,22 H 10 C 6.22876,22 4.34315,22 3.17157,20.8284 2,19.6569 2,17.7712 2,14 V 12 C 2,11.161 2,10.4153 2.0129,9.75 H 21.9871 C 22,10.4153 22,11.161 22,12 Z m -6,1.25 c 0.4142,0 0.75,0.3358 0.75,0.75 v 1.25 H 18 c 0.4142,0 0.75,0.3358 0.75,0.75 0,0.4142 -0.3358,0.75 -0.75,0.75 H 16.75 V 18 c 0,0.4142 -0.3358,0.75 -0.75,0.75 -0.4142,0 -0.75,-0.3358 -0.75,-0.75 V 16.75 H 14 c -0.4142,0 -0.75,-0.3358 -0.75,-0.75 0,-0.4142 0.3358,-0.75 0.75,-0.75 h 1.25 V 14 c 0,-0.4142 0.3358,-0.75 0.75,-0.75 z"
       fill="#1c274c"
       id="path341"
       style="fill:#800000;fill-opacity:1" /></g></svg>
