<svg xmlns="http://www.w3.org/2000/svg" viewBox="0 0 24 24" width="24" height="24">
  <defs>
    <linearGradient id="a" x1="0" y1="0" x2="1" y2="1">
      <stop offset="0%" stop-color="#00C3FF"/>
      <stop offset="100%" stop-color="#1BE2FA"/>
    </linearGradient>
    <linearGradient id="b" x1="0" y1="0" x2="1" y2=".5">
      <stop offset="0%" stop-color="#00C3FF"/>
      <stop offset="100%" stop-color="#60E860"/>
    </linearGradient>
    <linearGradient id="c" x1="0" y1="1" x2="1" y2=".5">
      <stop offset="0%" stop-color="#FF3333"/>
      <stop offset="100%" stop-color="#FFB800"/>
    </linearGradient>
    <linearGradient id="d" x1="0" y1=".5" x2="1" y2=".5">
      <stop offset="0%" stop-color="#FFB800"/>
      <stop offset="100%" stop-color="#60E860"/>
    </linearGradient>
  </defs>
  <path d="M3 1.5C3 .8 3.4.2 4 .1L14 7 4 13.9c-.6-.2-1-.7-1-1.4V1.5z" fill="url(#a)" transform="translate(2,5) scale(.75)"/>
  <path d="M4 .1L16.5 7l-2.5 2.5L4 .1z" fill="url(#b)" transform="translate(2,5) scale(.75)"/>
  <path d="M4 13.9L14 4.5l2.5 2.5L4 13.9z" fill="url(#c)" transform="translate(2,5) scale(.75)"/>
  <path d="M16.5 7L14 9.5l2.5 2.5 2-1.1c.8-.5.8-1.3 0-1.8L16.5 7z" fill="url(#d)" transform="translate(2,5) scale(.75)"/>
</svg>
