<svg xmlns="http://www.w3.org/2000/svg" viewBox="0 0 24 24" width="24" height="24">
  <rect width="24" height="24" rx="5.4" fill="#0D84FF"/>
  <g fill="#fff" transform="translate(4.5, 3)">
    <path d="M7.5 1.2C7.5.2 8.3 0 8.8 0c.6 0 1.3.3 1.3 1.2 0 .4-.2.7-.4 1L5.5 10h2.7l.8-1.4c.2-.3.5-.5.8-.5s.6.2.8.5l.8 1.4H14c.5 0 .9.4.9.9s-.4.9-.9.9h-1.8l.7 1.2c.3.4.1 1-.3 1.3-.4.2-1 .1-1.3-.3L7.5 7.2l-2.2 3.9h2c.5 0 .9.4.9.9s-.4.9-.9.9H1c-.5 0-.9-.4-.9-.9s.4-.9.9-.9h2.3L1.1 7.2C.8 6.8 1 6.2 1.4 5.9c.4-.2 1-.1 1.3.3l1.1 2L7.5 1.2z"/>
  </g>
</svg>
