<svg xmlns="http://www.w3.org/2000/svg" viewBox="0 0 320 160" width="320" height="160">
  <!-- Google Play triangle -->
  <g transform="translate(100, 48)">
    <defs>
      <linearGradient id="pl1" x1="0" y1="0" x2="1" y2="1">
        <stop offset="0%" stop-color="#4285F4"/>
        <stop offset="100%" stop-color="#34A853"/>
      </linearGradient>
      <linearGradient id="pl2" x1="0" y1="1" x2="1" y2="0">
        <stop offset="0%" stop-color="#EA4335"/>
        <stop offset="100%" stop-color="#FBBC04"/>
      </linearGradient>
    </defs>
    <!-- Play Store icon -->
    <rect x="-4" y="-4" width="72" height="72" rx="14" fill="rgba(255,255,255,.06)"/>
    <g transform="translate(12, 8)">
      <path d="M2 4.5C2 3.1 2.8 2 4 1.3L28 16.5 4 31.7c-1.2-.7-2-1.8-2-3.2V4.5z" fill="url(#pl1)"/>
      <path d="M4 1.3C5.2.6 6.6.7 7.6 1.3l24 13.8-7.2 7.2L4 1.3z" fill="#34A853"/>
      <path d="M4 31.7c1.2.7 2.6.7 3.6.1l20.8-12-7.2-7.2L4 31.7z" fill="#EA4335"/>
      <path d="M31.6 14.9L28 16.5l-3.6-3.9 3.6-3.9 3.6 2.1c1.8 1 1.8 3.1 0 4.1z" fill="#FBBC04"/>
    </g>
  </g>
  <!-- Apple icon -->
  <g transform="translate(184, 44)">
    <rect x="-4" y="-4" width="72" height="72" rx="14" fill="rgba(255,255,255,.06)"/>
    <g transform="translate(16, 6)" fill="rgba(255,255,255,.5)">
      <path d="M20.3 0c.1 0 .1 0 0 0-.1 1.8-.7 3.3-1.7 4.5-1 1.1-2.4 2-3.8 1.9-.2-1.6.6-3.3 1.6-4.4C17.4 1 19.1.2 20.3 0zM26.7 21.2c0 .1 0 .1 0 0-.5 1.4-1.1 2.7-2 4-1.2 1.9-2.5 3.8-4.5 3.8-1.7 0-2.3-1.1-4.3-1.1-2 0-2.7 1.1-4.3 1.1-2 .1-3.3-1.9-4.5-3.8-2.6-4-4.6-11.3-1.9-16.2 1.3-2.4 3.6-4 6.1-4 1.7 0 3.1 1.2 4.3 1.2 1.1 0 2.7-1.4 4.7-1.2.8 0 3 .3 4.5 2.4-3.7 2.3-3.1 8.2.7 10 0 0 0 0 0 0-.3.8-.9 2.2-1.7 3.5z" transform="scale(.85)"/>
    </g>
  </g>
</svg>
