<?xml version="1.0" encoding="UTF-8"?>
<svg version="1.1" viewBox="48 140 540 180" xmlns="http://www.w3.org/2000/svg">
 <g transform="rotate(12 300 300)" fill="#fff">
  <path d="m53.558 237.86c-0.05983-3.6641 114.35-7.1329 255.39-7.7422 141.04-0.60933 255.55 1.8691 255.61 5.5332 0.059814 3.6641-114.35 7.1316-255.39 7.7423-141.04 0.60931-255.55-1.8692-255.61-5.5333z"/>
  <path d="m32.722 238.55c0.25762-1.1127 4.1228-1.7424 10.663-1.5521 6.539 0.19144 15.757 1.25 26.272 3.6924 8.626 2.0053 18.095 4.9561 27.495 8.9137 8.0841 3.4029 15.337 7.2175 21.498 11.052 6.1601 3.8353 11.232 7.6856 15.125 11.138 3.893 3.4536 6.6166 6.5048 8.1695 8.796 1.5544 2.2913 1.9504 3.818 1.1382 4.3369-0.81059 0.51892-2.7501-0.011536-5.6042-1.3157-2.8557-1.303-6.6369-3.3752-11.247-5.8948-4.6104-2.5196-10.055-5.4854-16.226-8.5932-6.1695-3.1077-13.067-6.3537-20.512-9.4879-8.6571-3.6451-17.102-6.7343-24.745-9.2908-9.3295-3.1216-17.457-5.4762-23.196-7.3558-5.7393-1.8796-9.0886-3.3256-8.831-4.4384z"/>
  <path d="m36.341 237.24c-0.24367-1.0897 2.9243-2.5057 8.3532-4.3462 5.427-1.8406 13.116-4.1464 21.94-7.2031 7.2292-2.5034 15.216-5.5285 23.404-9.0979 7.0397-3.0691 13.564-6.2477 19.401-9.2909 5.8368-3.0432 10.986-5.9463 15.347-8.4147 4.3607-2.4673 7.9371-4.4964 10.638-5.7724 2.6996-1.2771 4.5326-1.7965 5.3007-1.2884 0.76816 0.50925 0.39362 2.0032-1.0766 4.2469s-4.0449 5.2315-7.727 8.6134c-3.6822 3.3819-8.4791 7.1511-14.306 10.907-5.828 3.7557-12.687 7.4899-20.333 10.822-8.8903 3.8754-17.847 6.7649-26.006 8.7286-9.9464 2.3916-18.665 3.4282-24.851 3.6157-6.1853 0.18631-9.8413-0.43027-10.085-1.5199z"/>
 </g>
</svg>
